<?xml version="1.0" encoding="UTF-8"?>
<svg id="Layer_1" xmlns="http://www.w3.org/2000/svg" version="1.1" viewBox="0 0 4342.4 3500">
  <!-- Generator: Adobe Illustrator 30.2.1, SVG Export Plug-In . SVG Version: 2.1.1 Build 1)  -->
  <defs>
    <style>
      .st0 {
        fill: #231f20;
      }
    </style>
  </defs>
  <path class="st0" d="M2857,145.8c-3.1-15.9,6-32.5,21.5-37.8,17.8.7,21.3,23.6,12.2,35.7,10.9,10.2,15,24.7,22.4,37.1,7,9.7,19,19.3,16.1,32.8-1.6,14.9-13.3,24.7-21.5,36.1,3.1,5.9,7.1,11.2,10.8,16.7-4.1,7.9-13.9,8.9-19.7,14.6,6.7,15.7,29.8,18.8,34.5,36.5-1.6,16.1-23.6,25.6-17.8,43.4,3.6,19.3,19.7,31.5,31.7,45.4,5.5,5.8,2.8,13.5-1,19.3,12,8.1,28.6,15.4,29.7,32,16.7,8,38,19.5,37.9,40.8.2,20.1-19.3,31.4-28.1,47.4-6.6,17.6-8.5,36.7-8.6,55.4,0,28.2-.9,56.9,7.3,84.2,10.7,9.5,24.7,18.3,26.8,33.8-3.4,4.4-7.9,7.5-11.9,11.2,11.2,7.4,25.6,8.4,35.8,17.5,6.4,5.6,13,11.5,17,19.2,3.2,17.9-.7,36.1,1.4,54.1,67.2,28.8,129.5,71.3,175.2,129,38.4,44.9,65.9,98,86.5,153.1,12.5,39.3,24.4,78.9,33.1,119.3,13.2,10.8,22.6,26.4,24.9,43.4,12.1,3.1,20.9,12.1,27.3,22.4,2.6,0,7.9.2,10.5.2,5.1,19,3.5,38.9,7.3,58.1,3.5,15.2,19,21.6,29.4,31.4,16.8,14.6,36,31.4,37.5,55.3,0,22.3-18.7,37.5-37.3,46-.6,39.3-1.2,79.1-10.6,117.4,36.9,11.8,74.7,27.2,101.8,56,13.6,14.6,24.8,33.3,23.3,53.9,5.2,10.7,12,22.1,8.8,34.5-3.1,17.4-20.9,26.3-36.4,30.4,8,10.5,18,22,16.5,37-1.2,77.5-7.9,155.7,5.5,232.5,1.4,10.6,4.7,21.7.5,32.2-15.1-.2-27.6-10.1-41.4-14.9-58.8-16.3-119.2-26.4-179.5-35.8-232.3-35.6-468.9-43.6-702.9-21.9-139.5,12.9-280.1,30.3-413.5,75,62.2-14.6,124.5-29.4,188.1-36.9,165-22.2,331.6-31.8,498-30.1,149.4-.1,298.8,11.6,446.6,33.9,92.5,16.5,187.2,32.2,271.3,76.4,12.6,6.6,25.8,19.6,18.3,35.1,101.5-13.4,203.4-24.8,305.2-35.6,18.4-3.1,37.1-2.8,55.7-2.2,5.3-1.1,11.8,6.8,7.1,11.3-8.8,6.9-21,5.1-31.3,7.9-98.7,13-197.7,23.5-296.5,36.5-110.6,12.7-220.4,31.2-330.9,44.3-39.3,4.6-78.4,12.5-117.9,15.1-2.7-7.9-4.2-16.1-4.9-24.3-55,3.1-109.8,10.5-164.9,9.9-19.3-.4-37.5-6.9-55.8-12.1-26.2-7.8-52.3-15.8-78.3-24.1-3.4,23.8-5.2,47.7-5.9,71.7,67,7.3,130.9,31.3,198.1,36.9,30.9,1.7,61.6-3.7,92.2-6.9,130-13.3,260.1-25.9,390.5-35.6,111.6-9,223.3-17.6,335.3-21.4,36.9-1.7,74-1.7,110.7,2.1,6.5,1.4,15.2,1.3,18.7,8.2,4.1,8.3-6,15.3-13.1,16.7-40.7,8.9-82.3,12.7-123.6,18.2-228.6,26.3-457.9,46.4-687.4,63-60.5,3.9-121.1,8.4-181.8,7.9-31.8-1.5-63.4-8.5-92.8-20.7-16.3-5.2-31.7-13.5-48.7-15.9,4.1,17.6,6.8,38.2,22.1,50.1,6.9,2.7,13.5,6.4,20.4,9.2,33.2,0,66.3-3.9,99.3-7,21.2-.4,45.7-3.1,62.9,12.2,7.4,6.7,2.1,17.4-4.3,22.7-14.2,11.8-32.7,16.8-46.8,28.8,8.8,16.9,13.7,35.8,13.5,54.9,2.1,89.4.6,178.8-.3,268.3-1.3,36.9.4,74.1-5.4,110.8-1.1,6.9-6.4,12-10.7,17.1,17.2,4,36.3,6.4,50.2,18.2,6.5,5.8-.1,14.2-6.2,16.7-10.9,5-23,6.1-34.7,8.2-43.6,6-87.6,6.3-131.4,9.3-.8,9.4-1,18.8-1,28.3,38.1-1.1,76.3-1.1,114.4.6,16.6,2.1,35,3.2,48.7,13.9,12.4,9.7,11.6,26.9,12.6,41.2,1.2,50-1.4,100-3,150-4,31.3-2.2,64-11.6,94.3-3.7,1.4-7.3,2.6-11,3.8-42.2,3.4-84.5,1.4-126.8.6-10.5-.4-21.1-.8-31-4.3-12.2-4.9-12.3-20.3-12.4-31.4.1-85.8,6.4-171.5,8.1-257.2-110.5,1.1-221,4.4-331.5,5.4-31.5,1.1-63.2-.4-94.4,4.4-13.4,2.2-24.8,12.6-26.6,26.4-7.9,44.3-7.7,89.6-12.9,134.2-3.5,32.5-5.1,67.2,8.7,97.7,8.6,18.7,37.1,22.3,49.4,5.6,11.5-16.7,3-37.4,1.3-55.7-6.2-43.3-9.1-87.6-3.2-131.2,2.9-14.2,6.4-33.1,22.6-37.6,12.7-1.3,20.7,11.6,24.8,21.8,10.7,30.6,11.4,63.5,12.4,95.7-.6,30-.9,61.5-14.3,89.1-4.9,10.2-15.4,18.4-27,13.5-6.1,10.3-13.5,21.2-25.3,25.5-18.9,7.2-41.4-2.8-51.5-19.7-9.6-15.8-10.9-34.9-11.7-52.8-11.6,29.4-32.4,57.9-63.2,68.6-19.1,5.4-41.9,4.1-57.1-9.7-17.1-14.8-23-37.7-27.4-58.9-7.2-45.3-5.2-91.4-4.5-137.1-6.9-6-15.1-10.6-24.1-12.2-31-6-62.7-4.6-94.2-4.9-40,.4-80.1-.3-119.9,4.5,0,26.8-1.2,53.6-2,80.4.5,8.2-5.1,15.2-11.8,19.4.6,32.4-1.9,64.8.1,97.2,2,8.6,1.9,20.1,11,24.5,14,7.8,30.5,7.6,45.9,9.8,7.9-39.1,10.4-79.2,20.9-117.6,7.8-29.4,30.5-54.2,59.3-64,22.6-7.7,48.9-11.6,71-.3,14,6.9,22,21.5,25.5,36.2,11.2,50.2,5.6,104.3-17.8,150.4,68.5-.9,137.1,2.4,205.7,2.1,128.8,1.7,257.5,1.5,386.3,2.3,215.9,2.9,431.9,1.4,647.8,7.8,48.5,4,98.7,3.2,145.1,20.2,11.3,3.9,11.2,18,0,22.2-40.8,11.4-83.7,12.1-125.7,15.4-47.4,3-94.9,3.8-142.3,6.7-22,3.1-46.2,1.2-66.3,12,34.1,10.9,70.4,12.3,105.9,13.8,101.4,1.8,202.8-4.1,304.1-3.9,74.9,0,149.8-.8,224.8,0,38.1-.5,76.4,1.9,114,8.8,8.8,1.7,4.2,14.4-3.4,11.9-28.1-4.5-56.4-7.3-84.8-8-146.7-2.4-293.4.1-440,3.4-64.8-.3-130,3.4-194.3-6.3-13.4-2.7-28.6-4.2-38.6-14.5-7.3-11.6,7.1-19.3,16.5-21.2,46.2-10.7,94-8.7,141-11.8,60.4-3.7,121.5-3.8,180.9-16.2-1.6-4-6.3-4.4-9.8-5.5-40.1-11.4-82.2-10.7-123.4-14.5-104-2.9-208-5-312.1-5-227.5-4.3-455-2.4-682.5-5.4-85.6-1-171.3-1.6-256.9-2.8-31.3,44.2-85.7,63.2-137.7,68-84,6.6-168.4,2.6-252.6,1.6-43.3-1.1-86.9,0-129.9-5.9-26.4,10.8-55.4,8-83.2,9.6-69.7,3.3-139.5,1.9-209.2,2.6-202.5-.3-405,.2-607.5-1.7-105.2-.6-210.5-2.4-315.7-2.4-56.5.1-113.1-1.6-169.6-4.1-19.8-1.9-40.3-1.8-59.3-8-7.5-11.1,7.4-16.8,16-17.4,73.1-10.2,147.2-10.7,220.7-17.8,25.7-1,51.3-4.2,77-5.6,9.2-47.5,9.3-96.5,1.6-144.2-3.4-19-5.9-40.6-20.2-54.8-21.5-4.6-40.5,9.6-59.1,18.1-34.2,15.8-71.7,32.6-110.2,24.1-28-5.8-49.5-30.7-53-58.7-4.2-15.9.2-31.7,2.2-47.4-54.5-30.9-66.4-119.5-15.7-159.4,30.5-26.3,72.8-24.7,110.5-26.4,14.8-1.8,32.3-3.8,42.3-16.2-6.1-8.4-16.4-11.2-26-13.2-45.3-6.8-89.3,13.5-134.4,10.2-20.8-18.6-21.4-49.2-20.8-75,.2-35.4,17.6-73.3,51.9-87.4,25.5-10.3,54-15.9,81.4-13.1-23.5-18.6-43.6-41.2-63.1-63.8-22.6-27.9-42.9-59.4-48.8-95.4-4.7-22.7,4.9-50.1,27.7-59.1,33.7-15.5,71.3-3.7,105.6,3.4,39.3,8.1,77.5,23.8,118.1,23.9,11.1-.2,8.8-14.4,1.6-18.7-18.4-11.2-41-10.7-61-17.5-31.6-9.4-58.9-34.5-66.6-67.1-13.7-55.8,5.4-121.4,53.5-155.2,24.7-17.3,57.2-27.5,86.8-17.9,12,4.8,22.9,14.3,27,26.9,6.9-3.6,13.6-8.8,21.8-8.2,13.3-1.6,23.4,8.3,33.5,15.2,19.6-15,50.5-13.3,66.3,6.5,23.2-12.6,55.1-7.8,71.2,13.9,27.3-3.8,57.7,4.3,75.6,26.2,20.5,24.2,19.7,62,.9,87,21-4.1,45.4,1.1,58.8,18.9,18.9,24.5,20.3,58.9,11.7,87.6-13.4,37.8-48,62.1-81,81.8-20.7,12.4-46.8,23.6-54,48.9-4.3,19.7-5,45.1,12.4,59,6.4,6.8,19.6,9.6,25,.2,9.9-15.3,3.8-35.4-3.6-50.5-8-13.6,19.8-29.1,25.8-13.1,18.7,4.5,35.9,18.4,40.1,37.8,4.4,14-1.3,28.5-8.1,40.8,20.4-6,45.7-7,62.6,8,11.4,9.6,6.2,26,1,37.6,20,4.7,40,12.9,51.4,31-2.9-66.9-2-134-3.6-200.9-16.1-9.6-35.3-22.6-36.1-43.2.7-20,23.4-25.1,36.9-34.8,60.5-4.7,120.7-13.8,181-21.2,41.5-4.7,82.9-10.3,124.3-16.1,3.9-12.5,12.3-25.5,26.6-26.4,2.9-14.7-1.9-29.6,0-44.3,3.3-5.2,10.1-4.4,15.4-5.7,60.2-9.5,120.8-16,181.1-24.7,2.2.8,6.6,2.4,8.7,3.3,38.2-24.2,74.9-51.1,112.7-76.1,42.2-28.2,84.9-55.6,127.5-83.1,20.1-12.4,39-26.7,60-37.5,16.9-8.1,35.7-3.5,52.8,1.2,87.4,19.3,174.3,40.6,261.7,59.5,17.6,2.3,33.7,12.7,51.8,11.7-3.6-2.8-7.7-4.9-12.2-4.9-13-1.7-25.4-6.3-38-9.7-67.4-19.4-135.5-36.8-201.8-60.3-5.5-4.1-2.7-12.4-3.8-18.2.3-117.3-.2-234.7,1.3-352,10.1-1,19.5,3.8,29,6.2,40.1,12.8,80.1,26.2,119,42.3.4,25-1.5,50-2.5,75-1.1,4.2,1.9,12.4-4.9,12.9-42.1-14.2-84.2-28.6-126.2-43.3-1.9,89.2,0,178.6-.9,267.9,30.3,10.2,61,19.3,91.5,28.9,44.7,10.7,88.6,24.6,133,36.6,63.1,17.9,128.4,27.3,193.8,31.2,56.9.6,113.6-6.4,170.1-12.8,107.8-12.7,215.4-27.3,323-41.9,38.2,10.1,75.6,23.4,113.8,33.5,23.6,6.7,48.1,3.9,72.2,2.4,37.9-1.4,75.7-6.2,113.6-8.1,1.2-20.4-4.5-40.4-5.8-60.7-100.5.6-200.9,4.5-301.2,9.5-204,3.6-407.9,7.9-611.9,11-34.3-.2-68.6-3.2-102.9-1.1-14.3.8-28.5,3.4-42.9,2.9-11.7.3-23.9-12-19.3-23.9,6.2-11.5,17.8-18.4,27.5-26.6-7.5-2.2-16.6-8.2-12-17.3,12.4-14.3,35.2-12.6,47.7-26.4,19.9-51.9,20.4-108.6,19.1-163.4-.5-35.5-8.6-70.1-14.3-105-10.4-7.3-23.5-12.9-28.1-26.1-10-21.9,5.2-44,20.3-59-2.8-19.7,6.3-39.1,20-52.8,27.3-28.3,64.5-43.7,100.9-56.6-3-39.5-7-79-5.9-118.8-9.2-8.7-21.8-14.1-28.3-25.6-9.7-13.4-8.1-32.4,1.1-45.7,12.5-18.4,30.7-32.1,49.1-44.2,4.3-3.6,10.9-6.6,11.5-12.9,1.4-19.1.9-38.2,3.2-57.2.1-7.6,8.6-9.5,14.5-6.8-4.5,10.3,3.2,12.2,1.9,1.9,8.1-9.4,18-17.1,27.6-24.8-.4-16.9,11.4-30.8,21.8-43,14.2-79.7,40.3-158.3,83.6-227.1,50-77.6,124.2-138.6,208.6-175.5,1.3-16.3,0-32.8,2.3-49,10.8-18.2,30.4-27.7,47.9-38-.5-6.2-8.7-7.8-10.6-13.4,2.8-14.6,17.5-21.3,26.5-31.4,12.2-41.5,12.1-86.2,3.7-128.4-3.7-23.3-31.7-33.2-33-57.5-2.6-22.2,18.6-35.8,35.7-44.7,4.9-15.1,18-24.5,30.6-32.9-2.2-3-4.3-5.9-6.4-8.8,3.2-17.6,21.4-26.8,27.8-43.1,4-9.8,10.1-24.2,0-32.3-6.7-5-7.9-15.4-1.7-21.2,11.4-13.5,33.5-21.3,33.7-41.7-3.7-6.8-4.8-14.5-6.6-21.9-18.6-12.4-23.2-36.3-23-57.1.2-18.8,2.1-40.8,18.8-52.7M2866.6,139.6c12.2,4.6,20.7-9.3,14.6-19.4-7.4,4.2-12.2,11.4-14.6,19.4M2855.2,167.4c-6.5,20.9-6.4,44.4,1.1,65,2.8,9.4,13.7,11,19.4,17.8,1.5,8.1,1.6,16.9,7.2,23.5,6.9-2.2,13.7-4.9,20.3-7.9-5.3-6.7-13.7-14.8-7.8-24,7.2-7.3,18.5-12,19.8-23.7,5.6-13.9-8.4-23.2-14.1-34.1-7.9-10.4-9.4-26.6-21.9-32.9-9.7,1.3-21.3,5.6-24,16.2M2881.1,279.4c-4.1,22.5-23.7,34.9-39,49.4,2.8,2.7,5.8,5.3,8.8,7.9,5.2,20.8-2.4,42.9-16.2,58.7-4.8,6.2-12.5,11.6-11.8,20.4,27.6-11.2,58.6-17.4,87.8-9.1,9.3,2.2,17.6,8.3,27.4,8.2-11.9-15.5-29.6-27.7-33.6-48.1-7.7-18.6,7.2-34.3,15.7-49.2-12.1-13.7-28.9-22.4-38.9-38M2799.1,454.2c52.4-15.1,109-14.8,161.6-1.3-4.3-11-17.8-14.2-26.8-20.4-17.5-11.7-39.3-8.8-59.2-9.2-27.7,0-58.6,7.2-75.6,30.9M2838.3,459.1c-25.8,4.2-55.4,7.5-73.8,28.2-9.6,11.1-2.9,25.7,5.6,35,13.8-15,34-20,53-24.8,28.3-6.7,57.8-8.4,86.7-5,28.6,2.8,58.4,8.9,81.4,27.2,5-7.9,12-16.2,9.3-26.3-7.3-16.2-25.9-22.5-41.6-27.4-39.3-9.6-80.6-13-120.8-6.9M2826.6,508.3c-14.8,4.1-30.4,8-42.5,18-3.1,2.3-3.3,4.9-.7,7.8,12.5,16.9,13.4,38.9,15.2,59.1,1.4,30.1,2.2,61.4-6.3,90.5,18.5-7.9,38.5-10.4,58.4-11.9-12.4-3.2-18.4-15.9-13-27.5-6.9-26.9-1.9-55.4-4.9-83,0-17.1-5.6-42.6,14.3-50.9,16.9-6.1,25.1,14.8,21.8,28.2-2.4,9,.7,17.7,4.3,25.9,2.2-14.1-4.5-28.4.8-42.2,2.4-14.2,23.8-19.9,32-7.6,5.5,10.5,3.9,22.6,4.6,34,.8-12.7,0-31.9,15.5-35.4,12.4-3.2,18.5,10.6,21.1,20.2,2.7,26.5-3,52.8-1.2,79.4-1.4,17,2.4,34.2.1,51.1-3.3,12.5-18.5,6.5-25.6,1.6-8.6-5.8-6.4-16.8-8.4-25.5-2.7,9.2-2.1,20.6-10.2,27.2-9.4,3.6-21,.8-26.8-7.5-3.6-8.5-5.2-17.6-6.7-26.7.9,9,.2,17.9-1.3,26.8-4.5,4.7-9.8,8.5-15.4,11.8,37.8-.9,76.5-1.7,113.3,8.6,1.4.2,2.8-.1,4-1.1-10.5-3.2-16.7-13.1-18.4-23.4-8.2-41.6,1.1-83.7-.9-125.6-1.2-6.4,6.4-11.6,12.2-9.2,0,31.8-1.3,63.7-1.7,95.5,1,16,0,33.2,8,47.7-4.3-31.5-4.9-63.6-1.4-95.2,1.4-14.6,7.3-28.2,13.7-41.3-14.3-11.5-31.6-19.7-50.1-21.3-34.2-6.2-69.5-4.9-103.5,1.9M2847.1,528.4c-3.4,16.1-1.8,32.6-1.7,48.9,1.1,26.4-.9,53.2,4.5,79.3,1.3-.2,3.9-.6,5.2-.8,5.9-21.8,3.2-44.6,3.8-66.8-.7-21.5,1.1-43.5-3.2-64.5-2.8-6-7.9.2-8.6,3.9M2882.7,557.6c.2,29.1-1.4,58.2.9,87.3-.1,5.8,2.8,10.9,7.4,14.4,9.5-8.9,7.3-22.8,8.4-34.6.4-33,1.2-66.1-1.8-99-1.5-1.7-4.5-5.2-6.1-6.9-8.3,10.9-8.1,25.7-8.9,38.8M2922.4,537.6c-.8,27.7,0,55.5-.3,83.2-.2,11.9,1.6,23.7,5.3,35,1.3.8,3.9,2.4,5.2,3.2,1.2-27.3-.1-54.6,1.1-81.9-.6-16.9,2.5-34.1-.8-50.8-7.5-3.8-11.3,5.4-10.6,11.3M2781.7,701.7c-7.3,4-13.3,10.2-17.1,17.6,50.3-30,112.1-32.8,169-24.6,22.2,3,45.5,8,62.9,23.1-1.7-7.2-6.2-13.6-12.9-16.9-36.5-16.4-77.4-18.2-116.9-17-29.2-.5-58.7,5-85,17.9M2799.7,715.4c-9,3.8-20.2,7.1-24.3,17,46.1-3.3,92.2-9,138.5-6.2,24.5-.1,48.7,4.8,73.2,5.1.2-1.5.6-4.4.8-5.9-15.3-9.1-32.1-15.9-49.8-18.3-45.9-7.5-94.1-6.9-138.4,8.3M2751.3,765.1c-8.4,2.9-16.6,6.7-25.6,7.4-3.4,13.9-1.5,28.3-1.3,42.4,50.2-20,103.9-33.4,158.1-34,54.4.7,108.1,14.3,158.4,34.3.5-14.8,1.3-29.6.1-44.3-10.3-8-24.5-8.9-36.9-11.8-83.2-17.8-170.8-16.9-252.9,6M2773.5,841.6c-19.6,24.8-32.6,53.9-45.3,82.6-29.5,68.1-41.8,142.7-41.1,216.7,21.5-3.2,43.2-5.1,64.8-7.9-2.8-67.2,5.2-134.6,20-200.1,8-33.6,16.3-67.6,32.2-98.5,5.1-11.9,13.3-22.1,18.7-33.7-21.1,6.7-36.1,24.2-49.2,41M2841.3,802.8c-19.4,16.7-29.2,41.4-38.5,64.7-28.1,85.1-41.4,175-38.6,264.6,22.9-2.8,46-2.1,69-3.7.4-85.4.8-170.9,9.5-255.9,1.6-25.2,7.7-49.8,13.2-74.5-5.2.6-10.9.5-14.6,4.7M2868.2,800.7c-6.6,18.1-8.6,37.6-12.1,56.4-8.1,90.2-12.8,181.1-9,271.5,23.2-1.9,46.5-1.2,69.7-.9.2-32.3-3-64.6-3.5-96.9-6.2-74-9.5-149-30.4-220.7-.2-6.6-8.8-17.8-14.8-9.4M2892.2,798c19.4,64.1,25.8,131.2,30.3,197.7,4.9,44,4.6,88.4,7.5,132.6,24.2,1.3,48.4,1,72.5,3.2-1.5-24.3-1.8-48.8-5.2-73-3.3-28.3-10.9-55.8-15.4-83.9-9.1-46.9-24.4-92.7-46.4-135.2-8.8-14.4-17.8-29.2-30.8-40.3-3.2-.3-9.5-.9-12.7-1.3M2924.7,801.5c30,38.3,46.5,84.6,59.5,130.9,17.3,65.5,30.5,132.6,29.8,200.6,23.2,1.9,46.4,5.2,69.5,8.1-3.7-19.5-6.7-39.1-9-58.8-7.4-48.1-20.2-95.6-39.3-140.4-20-45.3-43.7-91-81.7-123.9-8.8-6.8-17.6-14.6-29-16.5M2955.8,805c58.2,47.5,88.4,119.2,111.7,188.6,14.7,48.1,20.2,98.4,28.5,147.8,54,10.9,109.4,18.7,161.6,37.5,26.2,9.9,53.8,18.2,76.3,35.5-17.9-77.1-42.7-154-87.2-220.2-25.5-37.9-57.5-70.9-91.6-100.9.5,1.4,1.4,4.3,1.9,5.7,21.4,18.4,36.9,42.7,52,66.3,33.1,59.5,67.8,120.4,78.7,188.6,2.3,6.9-2.5,16.6-10.5,15.5-16.4-3.8-30.1-14.5-43.3-24.4-20.9-17-17-46.6-23.3-70.2-.3-11.6-4.2-25.8,4.5-35.1,7.3-4.6,15.7-1.1,20.4,5.3-24.4-60-61.2-115.4-107.9-160.4-19.4-18.7-42.7-32.4-65.9-45.8,46.2,36.9,83.1,84.6,110.7,136.7,19.9,43.5,38.6,89.6,38.9,138.2,1,13.3-11.4,27.7-25.5,23.9-14.8-3.9-21.2-19.5-25.3-32.6-5.3-20.6-8.8-41.6-12.4-62.5-3.4-11.2,5.5-26.9,18.6-23.7,7.1.2,10.9,7.3,15.6,11.6-19-53.2-48.6-103-87.8-143.8-26.4-30.1-57.1-59.7-96.3-71.3,20.3,11.5,37.7,28.8,53.3,46.5,30.1,38.9,56.4,81.1,73.7,127.2,12.9,33.7,25.1,68.9,24.9,105.4-.9,12.4-3.4,31.1-18.9,32.6-16.2,2.7-26.8-13.4-31.1-26.7-7.4-26.7-13.6-53.8-16.9-81.3-2.5-10.6,6.3-21.6,16.6-23.2,7.5,1.1,13.4,6.3,19,11-12.3-28.7-23.5-58-40.3-84.5-28.9-49.4-68.7-95.2-122.9-117.3M2786.3,806.1l-4.4,4.4c-35.1,15.3-61.3,45.4-82.4,76.4-23.8,36-42.2,75.2-56.7,115.7,6.1-1.9,12.7-4,18.4.7,7.1,7.5,4.3,18.6,4.3,27.9-3.2,23.6-5.4,47.4-11,70.6-3.2,12.7-10.4,27.8-24.9,29.7-9,2.3-18.9-4.2-19.7-13.5-7-53.4,15.2-104,33.4-152.9,24-54.3,54.9-107.2,100.2-146.5-30.1,16.8-57.3,38.6-79.6,64.8-38,45.6-69.5,97.3-87.8,154,5.1-9,15.1-18.4,26.4-14,8.1,6.2,4.9,18.3,4.3,27.1-5.8,27.1-7.9,56.1-22.6,80.4-5.6,8.1-14.2,17.7-25.3,14.9-8-3.2-9.6-13-11-20.5-1.3-40.3,15.2-77.9,25.4-116.1,21.9-52.9,52.8-102.4,91.9-144.3,2.9-4.4,10.8-6,10.3-12-67.6,50.5-120.5,121.1-151.8,199.6l-4.3,4.3c5.9-.2,7.1-8,12.2-10.2,9.9-7.9,21,6,18.6,15.9-3.2,25.8-9.9,51.3-20.3,75.1-5.6,13.3-15.5,26.3-30,30.5-4.8,2.6-12.1-2-12.4-7.2-3.6-19.4,2-39.1,6.4-57.9,18.7-70.1,53.6-135.7,99.9-191.4,7.4-10.3,20.6-14.5,27.1-25.6-8.7.3-12.5,9.6-18.4,14.5-35.3,29.8-65.7,65-91.1,103.4-36.4,59.2-60,125.5-74.9,193.1-.6,6.6-13.6,19,.2,18.8l.9-5.2c23.8-13.2,49.4-23,75.1-32,53.1-15.6,107.2-28.8,162.2-35.6-2.9-55.3,6.5-110.5,21.2-163.7,16.6-56.1,39.9-111.2,76.8-157.2,3.7-6,11.5-9.3,13.6-16.1M3097,1008c-2.3,27.8,6.7,55.3,13.1,82.2,3.3,9.5,6,27.7,20.4,23.6,2.2-28-2.6-56.1-10.7-82.8-2.8-11-12-19.9-22.8-23M2637.3,1029.2c-7.8,26.4-14.2,53.5-14.2,81.2-1.5,5.6,6.6,14.4,11,6.6,9.4-10.5,9.5-26.1,13-39.1,3-22.2,7.1-44.5,6.5-67-9.3,1.5-13.9,10.3-16.3,18.3M3160.7,1033c2.3,25.9,9,51.2,15.2,76.4,1.7,8.7,8.2,15,17.1,16.1,4.1-16.1-.3-32.5-2.8-48.4-2.8-18.2-9.2-37.1-24.9-48.1-1.1,1-3.4,3-4.5,3.9M2575.5,1058.7c-7.8,24.2-14.9,49.7-11.8,75.4,9.8-3.9,13.1-15.1,16.2-24.2,3.8-14.6,6.2-29.5,9.7-44.1,1.7-10.4,6.2-20.6,4-31.2-9.2,4.9-14.3,14.9-18.1,24.2M3223.5,1051.3c-4.4,21.8,5.1,43.4,9.3,64.5,2.4,7.5,6.7,20.8,16.9,17.4,5.4-4.7,2-13.3,1.8-19.5-3.4-22.5-6.1-49.9-28-62.5M2517.8,1080.9c-7.7,22.7-15,46.2-13.9,70.5,11.2-5.2,14.3-18.6,18.3-29.2,5-21.3,15.9-42.2,14.5-64.2-10.5,2.6-14.8,14.2-18.9,23M3262.8,1103.3c1.7,11.7,4.9,23.1,6.1,34.9-4.6,2.2-9.2,4.3-13.7,6.6,5.4,6.2,13,9.4,20.8,11.5-3.2-3.7-6.3-7.4-9.4-11,7.1-5.9,5.2-15.6,2.7-23.3-2.4-6.1-.4-14.6-6.6-18.7M2649.6,1158.9c-60.2,11.2-120.9,23.7-177.3,48.2-25.1,12.3-56.5,24.7-63.7,54.9,83.7-37.7,173.9-60.8,265.3-69.9,87.4-11.8,176-14.8,264.2-12,59.2.4,118.2,6.6,176.7,14.9,75.6,10.7,150.5,28.6,221.3,57.5,7.4,3.1,14.8,7,23.1,6.9-6.9-26.4-33.4-38.7-55.9-49.4-85.1-38.9-178.9-53.1-271.2-62.7-127.3-12.7-256.2-9.2-382.5,11.5M2732.9,1197.3c-97,8.1-194.1,24.9-284.9,60.9-8-1.5-14.4,4.7-21.2,7.8,4.7.6,9.7.6,13.9-2.2,12.8-7,26.8-11.3,40.7-15.4,85.7-24.5,174.1-38.3,262.9-45.9,178.4-14.4,359.5-1.5,533.3,41.7,12.9,2.6,24.5,10.8,38,10.5-10.4-6.7-22.7-9-34.6-10.4-177-53.5-364.7-62-548-47M2440.5,1274.7c-12.4,3.4-26.4,11.1-39,4-21.5,13.3-35.9,38.8-34.8,64.3-.4,3.4.2,12.6,6.2,9.2,17.6-7.4,34.4-17,52.2-24.1,51.1-20.2,105.1-31.1,158.6-42.7,151.9-26.4,306.9-31.2,460.6-21.7,88.4,6.2,176.7,19.1,261.2,46.1,34,9.9,65.5,26.3,96.4,43,4.7-30.5-7-71-41.3-77.9-4.4,4.8-10.3,8.4-16.8,5.2-91.6-36.8-190.6-50-288-62-78.4-8.8-157.5-10.5-236.3-8.2-128.2,6.3-257,23.5-379,64.8M2826.1,1272.3c-137.6,5.8-276.5,22.8-406.6,70.3-5.2,1.8-15.4,0-16.8,6.7,7.2,2.4,12.3-5.5,19.1-6.4,72.3-19.3,146.3-31.9,220.6-40.1,130.7-13.9,262.8-15.9,393.7-3.8,90.1,6.4,179.8,19,268.2,38,26.4,5.8,53.1,10.9,78.4,20.6-20.7-13.1-43-23.5-66.2-31.4-157.5-53-325.9-57.5-490.5-53.9M2768.5,1305.5c-127.1,6.4-254.4,22.3-376.6,59.1-10.3,2.3-24.9,11-31.7-2.1-20.7,21.9-53,33.5-65.3,62.8-6.4,17.8,9.5,32,22.4,41.4,7.9-39.5,48.4-56,81.1-71,105.8-39.5,218.6-55.8,330.6-66.1,136.3-11.6,273.7-7.7,409.6,7.1,81.4,10.6,163.6,23.8,239.9,55.5,19.9,8.4,40.1,18.2,54.2,35.2,8.9,10.9,12.5,24.8,15.2,38.4,16.7-6,31.3-25.8,22.1-43.4-12-27.6-42.2-39.2-60.6-61.4-.4,2.3-1.3,6.8-1.7,9.1-2.1,1.1-6.1,3.2-8.1,4.3-21.6-8.6-44.2-14.2-66.9-18.7-97.3-22.7-196.5-37-296.1-44.2-89-8.5-178.7-10-268.1-5.9M2661.4,1348.7c-88.7,13.1-178.7,25.6-262.2,59.9-20.4,9.2-40.8,18.7-57.9,33.3-6.4,4.5,7.5,2.5,6.7-1.4,5.5,5.9,10.4,12.9,10.7,21.2,4.3,31.2,4.4,62.7,3.3,94.1-.5,12.4-4,24.8-11.3,34.9,24.3-9.4,49.9-15,75.1-21.7,140.8-30.8,285.2-42.3,429.1-43.8,114.8-.1,229.7,4.3,343.5,19.3,72.5,11,145.4,22.9,215.4,45.7-22.6-15.9-16.2-45.4-15.9-68.7-10.8,13.5,1,32.3-8.6,46.6-4.4,7.4-14.4,3.7-21.3,3.7-11.6-9.6-11.9-25.8-12.1-39.6.2-29-.6-58.2,4.9-86.8,2.2-9.6,10.7-23.1,22.2-17.7,16.3,6.4,14,26.2,18.3,40.2-.3-14.6,4.1-30.3,18.7-36.3-30.9-26.8-71.4-37.4-109.3-50.2-84.2-23.5-171.4-33.2-258.3-39.9-130.2-10.3-261.4-8-391.1,7.2M3375.1,1443.9c-9.6,32.4-6.4,67.2-5.8,100.6.3,5.2,1.9,20.5,10.1,13.8,3.7-19,4-38.4,5.3-57.7.6-19.5,2.8-39.5-1.6-58.8-2,.5-6,1.5-8,2M3414,1459.3c-7.6,24.9-6.7,51.1-6.2,76.8.9,15.8,2.2,33.1,13.4,45.5,6.4-31.7,8.9-64.3,9.9-96.6-.8-13.7,2.7-29.6-6.4-41.2-5.8,3.2-8.6,9.5-10.7,15.5M2334.6,1465.1c-1.8,12.4-.2,25,.2,37.5,3.4,24.6,3.3,49.6,8.3,74,7.3-3.7,5.6-13.3,6.5-20.1-.4-33.8,2.2-68.2-4.7-101.5-6.6-4.8-8.4,6.1-10.3,10.1M2555.9,1557.9c-93.5,14.4-187.6,32.7-274.4,71.7-29.8,14.2-64,35.2-68.7,70.9,36.8-24.3,79.4-37.6,121.4-49.9,81.3-22.4,164.6-36.3,248.1-47,153.3-16.1,308-19.5,462-12.5,118.9,6,237.8,18.9,353.8,46.3,52.9,13.1,105.5,30.4,152.5,58.4-5.1-17.4-15.9-32.5-29.5-44.3-26.2-21.2-58.2-33.6-89.8-44.6-82.2-25.8-167.1-41.7-252.4-52.6-206.7-24.1-416.6-23.1-623,3.5M2519.2,1624.6c-69.6,10.8-139.2,23.8-206.6,44.8-32.1,10.7-64.3,22.5-92.7,41.4-11.3,8.3-22,18.5-27.7,31.5-5.9,13.6,1.5,30.5,15,36.3-1.1-16.8,3.7-34.4,16.7-45.9,18.3-16.5,40.3-28.4,63.1-37.3,81.1-30.6,167.2-44.6,252.7-56,109.9-14.2,220.7-18.1,331.4-18.4,147.7-.7,296.2,4.5,441.8,30.5,65.3,12.3,131.2,26.4,191.6,54.9,18,9.4,37.1,18.8,50.1,35,1.9,4.1,6-.2,5.2-3.2,3.5-16.2-11.1-27.9-23.2-35.4-47.6-28.7-101.8-43.9-155.4-56.8-141.4-32.5-286.8-42.4-431.5-45.5-143.8-1.7-288.1,3.6-430.6,24.1M2728.3,1635.5c-133.8,8.1-269,18.7-397.8,57.9-34.8,11.3-71.3,23.1-98.1,49.1-10.2,9.1-14.8,23-12.9,36.5,7.1-2.1,14.2-4.3,21.3-6.6,8.7-14.6,28.1-10.8,40.1-20.8,7.2-6,16.6-7.2,25.7-7.5,17.8-8,35.2-21.6,55.9-19.1,10.7,1,20.4-4.6,31.1-5.1,5.9-3.6,11.4-8.6,18.7-9,30-4.4,59.8-8.9,89.5-14.9,25.1-6.9,51.5-4.3,77-9.4,22.5-1.2,44.4-6.2,66.8-7.8,52.8-1.4,105.4-7.5,158.2-8.1,42.1,0,84.3-2.6,126.5-1,42,.9,84.2-1.8,126.1,2.9,27.6,2.2,55.4.9,82.9,4.1,37.9,4.6,75.9,7.7,113.8,12.9,23.8,6.4,48.5,7.7,72.4,13.4.4,2.4,1,7.1,1.4,9.4,5.5,3.5,4.8-7.2,6.7-9.2,20.2,4.9,42.7,5.2,59.3,19.5,20.7-4,46,1.3,60.4,17.6,14.7-5.7,27.9,5.2,41.7,8.9,10.3,3.2,17.1,13.4,27.5,15.9,9.3-3.4,18.8-6.8,26.5-13.3-20.8-22.9-50.3-35-78.1-46.9-87.6-31.7-180.2-46.1-272.3-57.7-108.7-11.2-218.1-14.4-327.4-14.4-47.6-.6-95,3.1-142.5,2.9M2997.8,1682.8c-6,.6-13.5-.2-17.3,5.5-8.2,10.2-7.6,24.2-10.2,36.3,5.4-4.7,10.3-12.2,18.5-11.5,14-1.5,27.5,9.9,29,23.9,7.7,43.1,8.1,86.9,8,130.5-1.3,33,.5,66.4-6,99-1.3,4.4-4.2,8.1-7.1,11.6,11.8.6,23.6,1.6,35.4,1.3,3.9-75.3,8.9-150.6,8-226.1-.7-19.7,2.6-40.2-4.4-59.1-1.7-6.6-8.5-10.7-15-10.7-12.9-1.3-26-1.3-39-.8M2804.8,1683.3c12.2,26.8,10.7,57.1,11,85.9,0,69.2-.6,138.7-9.9,207.3,9.8-.9,19.6-1.4,29.5-1.8-2.7-25.2-4.7-50.4-5.1-75.8-1.9-72.2-6.3-144.8,3.1-216.7-9.5.1-19.1,0-28.5,1M2840.2,1757c-.4,73,.4,146.2,7.6,218.9,24.4,0,48.7,1.3,73-.2,2.5-56.9,4.7-113.9,4.4-170.9-1-40.9,2.4-82-3.7-122.6-25.1-1-50.2-.3-75.3.2-5,24.5-5.8,49.6-6.1,74.6M2934,1681.6c5.8,42,3.4,84.5,3.8,126.8.6,55.6-3.2,111-4,166.6,13.3,1.3,26.9,0,39.9,3,10,4.8,22.1,3.1,31.2-2.9-10.4,1-20.9.8-31.3.3-7.6-14.9-9.2-31.6-10.8-48.1-5.1-65.7-7.1-131.7-5.3-197.6,1.3-16.3,3-33.5,12.4-47.5-12-.2-24-.4-35.9-.6M2724.8,1688c-11.4,2.8-7.9,16.9-9.3,25.7-.9,89.2,1.8,178.4,7.3,267.4,23.1-1.9,46.4-.7,69.4-4.3,4.1-10.7,3.1-22.8,5.1-34,4.8-25.1-.4-51.5,8.1-76,2.6-6.3-1.1-12.3-3.6-17.8,1.1-21.4,1.2-42.9-.1-64.2,2.2-27.6,2.6-55.8-3-83.1-2.2-7.3-4.8-18.7-15-16.5-19.7.4-39.4.6-59,2.7M3061.2,1685.4c9.4,20.1,6.7,42.6,7.1,64.1,0,76.6-2.5,153.3-8.1,229.7,13.9,1.9,29.1-1.5,41.8,5.5.3-1.9,1-5.6,1.3-7.5l-5.7,4.4c-11.4-31.4-10-65.2-13.3-97.9-.5-54-4.8-108-2.5-161.9,0-12.7,5.1-24.3,11.1-35.1-10.6.6-21.2-.2-31.6-1.2M2676.5,1690.4c16.8,21.2,13.8,49.6,16.4,74.9.5,63.5-2,127.1-9.4,190.1-2.1,11.2-3.4,28.3-18.2,29-11.8,1.4-33.1,6.2-35.8-10.2-9.1-67.8-9.8-136.6-3.4-204.7,2.1-18.6,5.5-41.7,25.5-49.3,8.2-5.9,17-.4,22.9,5.8-.4,3.7,5.6,10,.7,12.4-6.9-.6-12.4-5.2-17.8-9-15.4,8.2-17.1,27-19.2,42.4-6,67.2-5.9,135.3,3.9,202.1,10.3,1.2,26.6,2.7,27.2-11.9,11.2-76.6,11.3-154.5,10.1-231.7-3.6-12.7-6.9-27.1-17.4-36-19.5-1.2-39.7-1.1-58.5,4.7-6.8,11.5-7.6,25.3-8.2,38.4-.7,46.2,2.9,92.4,3.4,138.6,1.8,38.2,6.4,76.3,8.1,114.6,34.6-1.3,68.7-7.9,103.2-8.5-4.6-73.6-6.4-147.4-7.4-221.2-.4-24.5-1-49.5,4.9-73.5-10.4,1.3-20.7,2.5-31.1,3M3094.1,1736.6c8.6-3,18-11.8,27.2-5.6,9.2,5.1,10.9,16.3,12.9,25.6,3.7,34.2,4.7,68.7,2.4,103-2,26.3-.2,52.8-3.8,79-2,14.9-.7,31.9-10.9,44.2,14.3,1.1,28.5,3.6,42.9,3.3,4.8-85.4,7.6-171,8.2-256.6,0-13.5-1.1-31.6-16.2-36.9-16.2-3.9-33.1-2.6-49.6-2-13.9,10.3-12.8,30.3-13.1,45.9M3178.5,1694c8.1,14.4,6.3,31.5,6.5,47.4-2.1,81.5-1.6,163.3-8.6,244.5,13.9,3.6,28.3,4.1,42.6,5.8-9.6-20.2-9.7-43.1-12.3-64.9-1.9-42-3-84.1-4.1-126.2,0-27.7-.9-55.6,3.3-83.1.5-8,6.2-14.1,10.6-20.3-12.7-.6-25.3-2.2-37.9-3.3M2557.3,1701.7c15.6,10.5,14.7,31,16.3,47.6.9,64.3,4.1,128.8-2.3,193-2,18.7-1.3,40.5-16,54.7,12.8-3.4,26.2-3.9,39.3-6-6.8-75.2-10.2-150.7-11.8-226.2.2-22.5-2.2-46.1,7.6-67.2-11.1,1.1-22,3.4-33.1,4.1M3230.8,1703.2c-18.3,6.3-13.3,28.7-15.6,43.7,8.2-1.4,18.9-4.9,25.7,2.1,10.8,9.9,9.9,26.2,12.4,39.5,2.4,63.5-.7,127.2-9.5,190.1-2.7,7.4-1.3,18.4-10.1,21.7,12.8-7.6,27.4-1.3,41.3-.6,6-81.9,6.5-164.1,6.9-246.1-1-13.7,1.3-29.4-7.3-41-12-9.7-29.2-12.6-43.8-9.3M2495.5,1724c-5.7,23.8-2.7,48.5-3.9,72.6-.8,68.5,0,137.1,4.7,205.4,12.5,0,24.8-2.5,37.2-4.3-15.2-4.7-15.7-22-17.2-35-3.1-59.4-9-119.4.6-178.5,2.8-12.4,7.6-28.8,22.1-31.1,10.5-2.5,16.1,7.9,22.1,14.2-1.9,3.3-3.7,6.6-5.6,9.9-4.8-3.7-10.3-17-18.1-10-11.2,13.6-10.4,32.5-12.4,49.1-2.6,51.5.2,103.2,4.2,154.5,0,10.3,7.5,19.7,18.7,15,14-19.1,9.5-44.7,12.9-66.9,3.2-60.4,2.4-121.1-.7-181.5.4-15.6-10.1-36.7-28.8-31.5-12.5,2.4-33.3,1.8-35.8,18.2M3282.4,1707c2.1,2.4,4.2,4.7,6.5,7,2.2,6.3,4.3,12.7,4.5,19.6,2.2,35.6.4,71.1,0,106.7-.2,53.8-1.1,107.9-7.3,161.4,13,1.3,25.9,3.7,38.9,5.1-9.9-32.2-7.3-66.3-9.5-99.4-3.6-48.6-2.4-97.4-4.6-146.1,0-16,.9-32.6,9-46.9-12.5-2.6-25.4-3-37.4-7.3M2457.1,1717.6c3.2,6.2,6.5,12.7,7.1,19.8,7.5,76,3.2,152.5,0,228.6-1.6,13.2-.8,27.7-8.3,39.4-6,2.5-12,4.9-18,6.8,15.7,1.1,29.7-9.4,45.9-7-5.2-89.2-6.2-178.6-3.3-267.9.8-9.4,3.3-18.7,7.5-27.1-10.1,3.1-21.1,3.2-30.9,7.4M3324.4,1756.9c7.7-1.5,16.1-4.8,23.5-.3,15.4,6.5,16.6,25.9,17.2,40.3,1.4,63.2-.8,126.4-6.2,189.4-.9,8.7-2.2,17.5-5.6,25.7,10.6,1.3,21.3,3.2,31.9,4.9,2.1-93.9.6-187.8,1.5-281.7-13.1-14.4-33.2-16.8-51.6-17.3-12.8,8.5-13.6,25.3-10.7,39M2406.1,1726.5c-8.2,5.9-6.3,17.6-7.7,26.5-2,88.2.1,176.4,4,264.5,9.1-1.3,18.1-3.4,27.3-4.4-6.6-9-9.2-19.9-9.4-30.9-4.9-39.2-4.1-78.7-4.3-118.1,1-29.8-.9-60.2,7.2-89.2,3.7-13.4,15.1-28.4,30.9-21.7.6-12.6-2.4-26-12.8-34-11.7,2.6-24.2,2.2-35.1,7.3M2969.9,1734.7c-1.6,52.1-.7,104.4,3.1,156.4.8,25,3.2,50.1,9.1,74.4,8,3.5,20.2,6.2,25.9-2.4,4.4-16.9,4.1-34.5,4.7-51.8,1.5-55.6,2.8-111.7-5.8-166.8-1.3-7.9-4.5-18.2-13.9-18.9-8,2.4-14.6,8.3-23.2,9.2M2378.6,1734.8c-2.8,41.5.3,83.5-1.3,125.2-2.5,53.8-3.7,107.8-9.6,161.4-6.3-.2-14.6,4.5-18.3-3.4,2.8-5.1,8.4-9.4,7.9-15.7,7.5-74.9,8.4-150.3,8.2-225.5-.2-13.2.3-26.5-2.1-39.5-9.9.5-26.1-.3-29.1,11.7-1.3,55.1,4.3,110.2,4.6,165.3,2.5,34.4,1.5,69.3,7.3,103.5-11.4,10.7-27.5,17.6-43.2,15.7-8-3.5-3.3-13.4-4.6-19.9,2.8-86,3.9-172.1,1.9-258.1-9.5,2-17.4,7.7-25.1,13.4,2.7,54,4.3,108,4.9,162.1.1,33.1,4.6,66.1,2.1,99.1-.1,4.3-2.5,9-6.9,10.4-10.6,2.8-21.4,7.9-32.5,5.4-3.5-11.8-2.3-24.1-1.4-36.1,1.7-19.8,1.3-39.7,1.7-59.5.2-55.9,3.1-111.8.2-167.7-7.7,1.7-15.4,3.8-21.7,8.7,2.9,21.5,9.2,42.5,10.9,64.2,5.9,39.1,4.9,79,2.9,118.5-4.6,29.8-6.4,60.5-17.5,88.8,57-18,115.1-32.7,173.7-44-.4-2.2-1.1-6.6-1.4-8.8-5.1-92.3-6.1-184.8-3-277.1-2.1.4-6.2,1.3-8.3,1.7M3402.6,1812.4c1.2,67.2.7,134.4,1.8,201.5,11.3,6.9,25.1,7.7,38,7.5,4.2-85.4,3.8-170.8,5.6-256.3,3.7-24.5-26.9-31.5-45.4-31.6-2.2,26.2.2,52.6,0,78.9M3094.1,1749.5c-1.9,34.1,1.7,68.2,2,102.3,1.6,38.5,3,77.2,9.2,115.3.5,4.9,5.7,6.9,10.1,6.3,5.9-17.4,4.4-36.2,7-54.3,1.5-43.3,4.9-86.7,1.9-130.1-1.4-16.1.4-33.3-7.9-47.9-7.7,1.1-17.2,1.6-22.2,8.3M2312.2,1761.1c1.5,87.1,2.1,174.3-1.8,261.4,6.6-.7,13.3-2.1,19.3-5.1,2.2-38-2.8-76.1-3.6-114.2-.2-51.6-4.3-103-4.3-154.6-5.6,1.5-11,6-9.6,12.4M3467.5,1751.5c.7,93.3-1.2,186.7,3.1,279.9,8.2,2.1,16.3,4.2,24.5,6.2-2.9-34.2-.5-68.5-.9-102.8,1.3-55.3,1.9-110.7,7.6-165.8-6.4-12.4-24.1-9.6-34.3-17.6M3215.5,1758.7c-1.5,37.6,0,75.3,1,113,1.8,36.8.9,74.2,11.6,109.9,2.9-1.4,4.3-3.8,4.3-7.3,8.8-60.8,10.9-122.5,8.8-184-1.5-10.9-1.5-23-8.3-32.2-5.1-4.7-11.7-.2-17.3.6M2435.9,1775.1c-8.9,27.3-6.9,56.3-8.1,84.6.6,43.5-.5,87.3,6.2,130.5,1.2,5.3,2.8,11.1,7.9,14.1,11.1-12.2,9-30.4,10.5-45.6,2.9-60.5,5.3-121.2,2.1-181.8-1.2-4.4,1.1-11.1-4.2-13.3-7.2,0-12.5,4.9-14.4,11.5M3324.2,1768c-.5,53,1.7,106,4.3,158.9-.1,21.3,2.2,42.5,5.1,63.6,1.1,4.3,1.5,10.6,6.6,12.5,6.6.1,3.6-8.4,5.4-12.3,6.6-56.4,7.5-113.3,7.7-170-1.6-16.5,1.6-34.7-6.9-49.7-6.4-4.9-14.8-3.5-22.2-2.9M2256.7,1804.8c.9,76.6-1.7,153.3-3,229.9,5.6-1.8,11-4.1,16.3-6.6.7-46.8-3.2-93.7-3.3-140.5,0-37.6-2-75.2-3.6-112.7-.6-1.1-1.9-3.4-2.5-4.5-8.6,9.1-2.6,23.2-4,34.4M2012.3,1777.5c1.7,21.8,1.3,43.7,1.1,65.5,39.8,15.8,81.4,26.9,121.3,42.9,1.1-21.5,1.1-43,2.1-64.4-40.6-17-83.1-28.8-124.5-44M3513.4,1836c-1.9,69.5-1.2,139,.5,208.5,11.6,3.6,22.1,9.7,33.7,13.3-5.6-31.5-10.3-63.4-10.2-95.5-.6-48.7-.7-97.4,2.3-145.9,1.3-15.9-5.3-33.9-21.7-39.1-5.6,19-3.1,39.1-4.6,58.6M2658.4,2026.2c-125.7,9.1-251.6,20.6-375,47-26.9,5.2-53.2,13.6-78.1,24.8-7.7,4-16,7.7-21.5,14.6-2,7.9,4.1,14,8.7,19.4,46.1,5.1,92-5.6,138-8.2,275.4-25.7,552.4-23.5,828.7-31.5,6.4-.3,12.6-2.4,18.7-4.4,16.4-6.3,34.7-1.9,50.5,4.4,78.2,5.6,155.9,15.7,233.3,28.2,34.5,6.2,68.6,14.4,103.4,19.3,20,4.3,41.1,4.4,60.4,11.9,3.2-2.3,8.5-6.7,5.1-11.1-11.1-13.4-28.4-18.3-43.7-25-76.5-34.8-160.4-47.9-242.5-62-226.7-35-457.2-38.3-686-27.3M2168.6,2095.2c17,3.7,32.3-9,46.3-17.1-16.5,1-32.5,8.3-46.3,17.1M3115,2105.7c-44.7,1.8-89.3,2.6-134,2.9-144.7,2.6-289.5,5-434.2,12.1-93.6,4.4-187,12.2-280.3,20.7-4.1,1-12.2-2.5-13.9,1.1,99.4,1.3,198.8-2.2,298.2-3.6,109.2-4.1,218.5-2.6,327.7-6.6,49.9.4,99.6-4.1,149.5-4.7,63.3-3.9,126.8-4,190.2-5.1-.6-6.7-.1-13.9-3-20-11.8-3.2-25.1-3.9-37.2-1.2-20.5,6-42.1,3.4-63.2,4.6M3227.3,2104.9c.6,5.7,1.2,11.4,1.9,17.2,84.6,2.3,169.1,9,253.3,17.4,4.3,3.3,20.3,7.1,18.4-1.3-31.3-2.5-62.1-10.3-93.3-13.8-59.9-8.4-119.9-15.9-180.2-19.5M2152.4,2140.2c11.8,8.4,28.8,1.6,42.5,2-12.7,0-23-9.5-24.6-21.9-7.2,5.1-19.5,8.9-17.9,19.9M3231.9,2134.2c1.4,19.5,4.5,38.8,6.6,58.2,114.4-9.3,228.2-25.1,342.9-30.7,10.2-.2,20.8-3,30.8.4,3.3,1.2,3.8-3.5,5.2-5.4l-7.3,2.9c-27.7-6.2-56.1-8-83.9-13.7-14.8,8.3-31.8,6.3-48,5.3-82-7.7-164-15.7-246.3-17.1M1868.5,2162.4c-90.9,60.7-184.2,118-272.7,182.3-4.9,4.3-8.8,9.8-10.9,16,2.4,14.1,10.5,26.3,15.4,39.6,6.3-.7,12.6-1.7,19-2.4,0-11.5-4-22.3-7.6-33,2.4-4.1,4.5-8.7,8.5-11.5,88.2-60.7,176.7-121.2,264.4-182.7,7.5-5.1,14.9-10.6,23.3-14.2,19.1-7.4,39.5-.1,58.2,4.9,74.4,23,148.2,48,222,72.7,37.2,13.4,75.6,23,112.6,36.9,1.2-13.2.7-26.6-1.3-39.7-61.1-13.3-122.4-25.9-183-41.4-65.7-13.5-130.6-30.6-196.1-44.9-19.3-4.6-36.3,7.5-51.7,17.2M1872.4,2194.7c-82.5,57.5-167,112.3-248.1,171.7,3.5,9.7,5.3,20,7.2,30.2,165.6-21.5,331.4-41.5,497.3-60.3,61.8-7.2,123.3-16.8,185.3-21.4,13.3-8.4,29.4-4.1,44-2.6,33.9,5.2,67.8,11.8,102.2,12.3,80.4.6,160.4-8.8,240.4-15.4,69.8-6.1,139.5-13.8,209.5-19.2.4-8.1.8-16.2,1.1-24.3-19.3,0-38.4,3-57.6,4.9-88.9,10.7-177.5,23.4-266.4,34.1-61.1,5.6-123.4,16.5-184.2,2.6-91.3-15.7-178.1-49.1-266-77.1-65.4-22.3-131.1-43.7-197.5-62.6-26.4-8.3-47,14-67,27.2M3241.4,2205.3c.3,4.2.7,8.4,1.1,12.6,20.8-.2,41-6.8,61.8-8,68.8-8.9,137.6-17.4,206.1-28.2,28.4-3.1,56.7-8.6,85.4-8.1-1.6-.3-4.8-.8-6.4-1-116.3,7.4-232.2,20.1-348,32.6M2638.3,2217.2c-69.6,8.2-139.4,17.2-209.6,16.9-43.3-2.3-86.3-9-128.9-16.6,3.2,1.9,6.4,3.7,9.7,5.7,4.1,17,1.2,35.9,6.3,52.2,41.2,9.9,82.6,19.5,124.5,25.6,63.8,4.1,127.2-7.4,190.5-14.2,93.7-10.5,186.8-26.2,280.8-34.6,2.3-24,2.3-48,6-71.8-93,12.8-186.1,25.3-279.3,36.7M502.5,2257.2c-19.5,34.7-25.7,78.4-11.5,116.1,9,24,31.7,39.9,55.4,47.4,22.3,8.5,49.2,6,68,22.6,12.4,10.8,7.9,35-9.7,36.6-41.6,2.3-81-14.6-121.1-23.2-31.5-6.4-65.2-18-96.9-6.4-16.7,5.8-26.5,23.6-25,40.8,3,35.2,23.4,65.6,44.2,92.9,21.7,25.3,44.1,51,71.8,69.8,19,0,38.2-.1,57-3.3,10.3-1.6,17.8-9.3,23-17.8-15.8-22.1-51.5-25.8-60.2-54.2-2.1-12,12.3-15.4,21.2-16.1,22.1-1.3,47.4,2.8,63.3,19.7,10.2,10.5,12.3,25.7,16.3,39.2-8.3,6.3-18.7,3.9-28.3,3.4,4.1,17.7-12.6,30.6-27.3,35.9-10,2.1-20.9,7.6-30.4,1.5,3,4.7,11.7,4.1,11.9,11.1-13.9,7.3-30.6,4.7-44.8-.2-16.3-6.4-34-1.5-50.7-.3-27.1,3-57.3,11.2-72.6,35.8-15.9,26.7-17.1,59.7-12.2,89.7,2.6,9.1,4.9,24.9,17.2,25,42.1-.5,83.5-18.2,125.9-9.9,14.4,2.5,33,8.2,35.5,25.1-4.9,20.6-29,24.2-46.6,27.3-37.5,3.2-79.7-1.1-111.2,23.7-43.6,35.3-33.1,111.9,13.9,139.5,5.1,2.9,12.9,7,8.6,14.1-8.2,22.7-8,50.2,6.9,70,12.3,16.7,33.7,23.9,53.9,23,35.8-1.5,67.8-19.2,99.3-34.4,14.6-6.6,30.3-14,46.7-10.5,16,6.2,22.2,24,26.3,39.2,12.7,55.6,14.9,113.9,4,170.1,13.8-2.1,29.5.5,42-6.5-16.5-40.4-17.9-85.5-12.2-128.3,3.9-24.1,10.7-50.5,30.7-66.4,10-8,25.2-15.6,36.9-6,15.2-14.3,40.4-14,56.5-1.5,17.9,11.9,24.6,33.9,28.3,54,14,1.1,30.8-.9,41.3,10.4,15.4-7.7,33.9-14.2,50.5-5.8,29.9,15.1,66.7,9.7,94.2-8.2,10-6.4,21.2-17.8,15-30.5-11.5-17-33.4-20.8-51.4-27.3-5.7-1.8-13.3-5.8-11-13.1,12.3-28.3,30.3-54.3,36.4-85-13.7,5.4-26.8,17.4-42,14.9l-2.5-3.8c12.9-12.1,31.1-16.6,46.4-25.2,12.4-23.1,29.6-45.5,31.6-72.5-15.8-1.8-34.9-4.7-43.8-19.6-6.7-9.8,1.3-21.5,9.8-26.8,17.8-11.8,41-9.9,60.7-4.6,14.8-16.6,8.3-41.3,11.2-61.6,4.4-28.5-20.8-54.1-48-57.6-6.2-1.5-16.2,0-17-8.8,1.7-10.6,12.4-19.7,7.9-31-13.4-16.2-37.2-12.3-54.7-6-6.1,2.1-18.4,6.8-19.7-2.9,7.9-13.4,15.6-27.7,15.6-43.6-3.3-18-21.2-31.4-39.1-31.6,4.5,20.2,9.1,45.1-6.4,61.8-9.9,11.8-29.2,8-37.6-3.7,6.4,21,5.4,43.2,5.2,65,0,18.6-4.7,37.4-13.5,53.9-5.7,9.9-17.9,20.3-29.7,14.1-12.5-5.5-14.7-20.9-16.5-32.9-1.3-29-.7-58.6,5.7-87,3.9-15,14.5-31.7,31.8-32-3.3-21.1-7.1-44.7,4.5-64,13.6-22.8,39.3-33.1,60.6-47,26.7-17,54.4-36.6,67-66.8,11.4-27.1,8.6-61-10.3-84.1-14.8-15.7-39.1-14-57.3-6-1.5-1.8-4.5-5.4-5.9-7.3,9.4-19.8,22.8-40.8,18.2-63.7-5.9-33-43.4-54.4-75.1-46.6,7.5,30.1.2,62.9-18.5,87.6-10.6,13.9-25.4,28.6-44.3,27.2-13.8-1.1-18.6-17.2-15.9-28.8,7.5-37.8,31.3-71.8,63.7-92.5-11-18.5-38.2-18.5-55.2-8.9-.9,21.6-.9,45.7-15,63.6-8.5,10.3-25.7,8.4-32.8-2.5-12.5-18.4-14.9-41.4-25-61-15.8,13.7-25.8,32.2-38.9,48.1-2-.2-6-.6-8-.8l-1.5-4.7c10-19.1,25.5-34.5,38.1-51.8-3.7-8.3-16.1-13.3-25.2-11.1-7,4.2-12.8,10.2-19.6,14.8-8-7.1-7.6-19.3-15.9-26.2-7.6-8.8-19.7-11.6-30.8-12-37.4,1.5-73.2,24-91.1,56.9M705,2235.9c8.7,17.9,13.2,37.5,21.6,55.5,2.2,5.2,7,10.5,13.3,10,11.4-5.7,12.2-20.3,14.4-31.3.9-12,4.1-26.9-6.1-35.9-12.3-10.5-31.3-8.2-43.3,1.7M3940.3,2237.5c-128.1,4.3-255.8,14.6-383.5,25.1-116.3,9.3-232.4,20.3-348.4,32.3-21.7,3-43.6,4.9-65.5,6.2-75.5,1-146.2-30.2-220.8-36.5.9,8.6-2.1,19.1,2.1,26.6,41.6,11.2,80.2,33.6,123.9,36.8,52.7,3.5,105.4-1.9,158.1-4.1,237-16.7,473.8-37.1,710-63.5,45.9-5.8,92.3-9.7,137.4-20.5-37.5-5.2-75.5-2.9-113.3-2.5M824.9,2266.8c-18.1,11-30.8,28.6-40.7,47-7.7,14.1-13.3,29.9-12,46.2,15,4.7,26.6-7.9,35.5-18.1,15.8-17.2,21.7-41.3,21.6-64.1-1-3.7.8-10.2-4.5-11M2643.8,2326.1c-77.6,5.8-155.8,16.3-233.5,7.2-25.5-3.1-50.6-10.2-76.3-10.7-4.2.2-10.5.2-11.9,5.1-3.9,10.7-3.4,22.3-3.6,33.5.1,59.1.6,118.1,0,177.2.8,93.4-1.7,186.8,5.1,280,11.6-1.9,18.7-13.1,21.5-23.6,11-41.1,8.3-84.1,8.2-126.2-1.5-46.2-6.3-92.3-8.8-138.4-2.2-23.5-4.2-47.1-2.8-70.6,1.9-20.9,10.1-42.5,27.3-55.5,24.5-18.5,61.5-21.8,86.9-3.2,17.8,13.9,24.5,36.9,27.4,58.4,8.7,81.4,3.1,163.4,0,244.9-6.2,67.1-14,134-18.9,201.2,0,59.2-1.3,118.4-.7,177.6-2.3,16.6-2.5,33.5-1.7,50.2,10.4-15.7,2.1-36.3,2.9-53.9,2.3-30.5,3-61.7,11.1-91.4,5.6-19.4,27-27.7,45.5-28.2,63.7-3.7,127.6-2.8,191.4-4.1,75-1.5,150-3.7,225.1-3.6.3-9.3.5-18.6.9-27.8-7.1.5-14.1.9-21.1,1-135.6,1.9-271,11.3-406.6,12.1-18.6,2.2-39.7-11.3-38.6-31.6-.4-8.8,7.8-13.4,11-20.2-7.4-12.5-5.3-28.3,3.8-39.3,3.2-120.9,9.2-241.9,8.8-363-.9-21.8.9-46.4-13.7-64.4-4.6-5,.7-11.8,5.2-14.5,22.3-3.3,45-.2,67.4-1.4,33.5-7,67.8-8.2,101.8-10.8,20.7-4.6,41.9-5.5,62.9-7.9,38.5-1,76.2-10.2,114.6-12.2,32.6-3.5,65.1-9,97.9-12.1-14.3-15.4-19.3-36.8-21.6-57.1-89.3,4.7-178.1,16.8-267.2,23.1M2074.1,2354.9c-147.2,18.5-295,33-441.8,54.3l-.9,5c8.1-.1,18.9-2.4,24,6.1,6.8,11,6.9,24.7,7.9,37.3,21.9-5.8,44.5-9.2,67.1-10.1,14.4-.7,29.2,2.1,43-3.2,24.2-3.1,48.5-5.6,72.9-7.1,29.4-5.6,59.4-7.5,89.3-9.5,30-6.1,60.8-8.3,91.4-9.5,32.1-8.3,65.6-9.4,98.6-10.9,33.5-8.6,68.4-8.6,102.7-11.2,19.8-7.1,43.1-8,62.5.8,2,9.2-1.5,18-3.3,27-2.8,43.4,3.4,86.5,4.1,129.9,3.4,48.8,3.3,97.7,6.2,146.4,2.3,41.1,0,82.8,6.9,123.5-.6,4.5-.8,9-.8,13.5,1.7-4.4,3.2-11.5,9.4-8.6-5.1-39.8-4.7-80.1-5.8-120.2-1.9-119.7-.5-239.4-.7-359.1,0-7.5,1.3-14.8,2.8-22-78.6,7.8-156.9,19.5-235.5,27.7M1396.3,2366.9c.5,19.7.3,39.5,2.2,59.2,62.7-9.1,125.6-16.6,188.6-24.2-8.7-18.7-18.6-39.8-8.1-60.1-60.8,9-121.8,16.6-182.6,25.1M3013.2,2373.2c17.2,14.1,38.7,22.9,54.9,38.6,16.1-12.3,36.7-18.3,50.8-33.1-9.3-9.2-22.9-10.1-35.2-9.7-23.6-.9-46.9,5.2-70.5,4.2M2886.4,2377c6.9,10.1,13.5,20.5,19.4,31.3,7.1-.9,15.6,1.9,21.9-1.5,4.4-12.4,11.7-23.5,16.7-35.5-19.5.9-38.6,4.8-58,5.6M2939.2,2412.5c9.3,135.1,5.3,270.7,9.9,405.9,6.4,0,14.8-1.5,15.7,6.9-4.5,3-9.7,4.2-15.1,4.3,0,11.6-.2,23.4.7,35,36.4.3,72.8,1.4,109.1,5-13-18.3-15.4-41.3-18.7-62.8-8.1-73.4-4.7-147.5-3.9-221.2,4.5-56.1.4-114.2,19.6-168-20-15.2-42.4-27-62.5-42.2-12.4.3-24.7.3-37.1,1.4-9.9,9.9-10.9,24.1-17.8,35.6M2853.1,2382.1c-5.6,11.2-15.3,20.3-18.9,32.5-1.3,8.4-.7,17-.1,25.5,7.1,125.1,13,250.4,22.8,375.3.4,5.9,7,9.2,6.7,15.4,1,10,1.5,20.1,2.9,30.2,6.2-.2,12.4-.2,18.6-.2,1.6-18,.2-37.1,9.5-53.3-6.4-15.2-6.4-31.8-7.2-47.9-2.4-64.6,2.7-129.1,2.9-193.7,1.3-50.4,3.9-100.8,3.9-151.3-3.8-12.4-12.5-22.7-19.7-33.2-7.2-.5-14.4-.1-21.4.7M2779.9,2390.1c8.1,8.4,13.9,18.5,19.5,28.6,7.4-.4,22.7,5.7,22.9-6.4,2-11,9.7-19.4,15.9-28.3-19.6,1-38.9,4.8-58.4,6.1M2734.3,2424.5c.4,43.1,3.1,86.3,5.7,129.4,2.8,76.5,6.8,152.9,9.2,229.4,1.1,13,1.3,26,3.3,39,9.7,12,10.1,28.1,13.1,42.7,2.1,0,6.4-.1,8.5-.2,1-10.1,1.7-20.4,4.2-30.2,1.6-7.1,8.6-12.3,7.4-20.1-2.7-126.2-1.5-252.6,1.1-378.7,1.9-16.3-7.4-30.7-18.9-41.2-19-5.3-25.6,17.6-33.6,30M2682.1,2399.8c6.6,8.6,14.1,17.2,16.1,28.2,7.5.4,15,.3,22.6,0,3-12.5,10.4-23,17.7-33.3-18.6,3-37.5,4.7-56.4,5.1M2244.6,2401.9c6.9,6.6,13.4,13.7,17.4,22.5,1.4,5.8,6.1,8,11.7,7.7,1.6-9.4,4.4-18.5,5.1-28.1-11.4-1-22.8-1.5-34.3-2.1M2361.7,2431.9c-11.6,21.9-7.7,47.5-7.7,71.2,4.4,81.5,16.3,163,11,244.8-2.7,21.6-4,44.2-13.8,64.1-3.3,4.6-5.2,13.1-13,11.2-.2,6.9,5.5,7.9,11.1,2.7,16.7,4,36,11.5,42.4,29.1,3.4,5.6-.1,14.8-6.9,15.9-19.2,6.3-39.8,1.4-59.2-1.2-9.1-1.1-16.4-6.9-21.5-14.1-1,10.2-8.5,17.7-16.1,23.8-14.2,10.1-32.4,7.9-48.6,7.1-6.8,6.3-15,9.2-23.2,3.6-28.9,2.2-58.2,6.6-87.1.7-33.1-.7-66.5,4.4-99.5-.7-30.7,3.9-62.7,7.7-93.1.7-13.1,4.9-27,7-40.9,7.1-18.4,0-37.6,2.5-55.2-4.3-27.5,7.7-57.3,7.4-85.2,1.9-25.5,8.2-53.4,6.1-79.7,3.9-21.8,3.5-45.8,8.8-65.9-3.4-.7,16.3-2.2,32.5-1.6,48.9,171.8-13.3,344.2-22.1,516.7-20.6,86.3,1.3,172.6,0,258.9.8,23.1,1.9,47.6.8,68.7,11.9-1.5-31.9,3-63.5,4.9-95.2,12.9-113.9,22-228.5,17.2-343.2-2.6-26.6-2-55.6-17.4-78.7-23.3-31.5-79.2-22.7-95.4,11.8M2145.9,2414.1c8.4,6.7,15.7,14.6,20.5,24.3,4.2,0,8.4,0,12.6-.1,3.6-14,13.3-23.8,23.7-32.7-18,7.1-37.5,7.8-56.8,8.5M2572.2,2409.6c9.7,7.2,16.9,17.5,19.6,29.5,7.5.3,15.2-.3,22.7-.9,3-12.6,9.2-24,18.1-33.3-20,3.2-40.3,5.8-60.5,4.7M2647.5,2406.2c-9.9,10.3-19.8,22.4-20.6,37.3-1.5,27.9,4,55.4,3.8,83.3,5.3,100,8.8,200,13.2,299.9,10.9,13.6,8.8,31.8,13.9,47.6,4.2-.9,8.3-1.9,12.6-2.6,2.4-15.5-3.2-35.6,10.5-46.9,2.6-126.9,3.7-253.9,6.6-380.9,1.1-12.4-3.7-24.5-11.4-34-6.3-10.1-19.2-3.5-28.6-3.7M1602.8,2412.1c.9,1.5,1.8,3.1,2.7,4.7,5,0,10-.2,15.1-.1-.3-2.2-.6-4.5-.8-6.7-5.7.7-11.3,1.4-17,2.1M2194,2432.1c-2.8,10.1-3.8,20.8-2.6,31.3,7.1,120.9,10.2,242.2,18.1,363.1,9.6,15,7.4,33.5,11,50.4,2.2,0,6.5.3,8.7.4-1-13.1-1.1-26.4,2.1-39.2,3-8.3,10.4-15,10.2-24.4,8.6-112.6,14.3-225.5,14.4-338.4-.7-18.7.9-38.8-9.7-55.2-5.7-10.6-20.1-9.8-30.4-9.9-8.6,5.6-17.1,12.6-21.8,21.9M1370.2,2430.1c5.5-.8,11-1.7,16.5-2.6-.5-4.2-1.1-8.4-1.6-12.5-6.6,3.2-12.5,7.9-14.8,15.1M2494.6,2414.6c7.7,10.1,11.5,22.1,12.5,34.6,5.1,0,10.3,0,15.5,0,2.9-12.6,4.3-26.6,14.7-35.7-14.2,2-28.5.5-42.7,1M1532.8,2420.8c-44.6,5.8-89.2,11-133.8,16.9-.3,1-1,3-1.3,4.1,5.4,2.5,11.6.9,17.4.4,59.2-7.5,118.6-14.2,177.7-23l-1.1-3.9c-19.8-.6-39.3,3.4-58.8,5.4M2048.2,2425.5c8.5,4.4,11.9,13.6,15.5,21.9,4.1,5.6,11.3,1.7,16.8.5,2.6-11.6,9.9-21,18.7-28.6-16.8,3.3-33.9,5.2-51,6.2M2547.2,2419.9c-13.7,9.9-8.4,29.2-14.3,43.2,2.5,124.1,8.1,248.2,15.4,372.1.7,3.6,2.9,6.3,6.6,8,4.5,11.2,4.1,23.4,5.2,35.2,6.4-7.4,2.9-18.9,5.9-27.8-.1-10.1,8.7-17.6,8-27.8,1.3-124.9,5.6-249.9,6.1-374.8.2-12.2-6.9-22.3-14-31.5-6.5-.2-13.7-1.3-18.9,3.4M2106.3,2429.3c-12.5,10.1-16.3,26.6-15.9,42,3.4,119.5,8.4,238.9,15.2,358.2,9.7,13.9,7.2,30.9,9,46.8,4.7.2,9.4.3,14.2.6-.7-17.3,3.2-34.4,11-49.8,6.6-113.2,11.8-226.5,15.5-339.8-.7-19,4.8-41.2-8.2-57.3-9.5-12.8-31.1-13.9-40.8-.7M2906.3,2420.2c.2,50-3.5,99.8-3.7,149.8,0,72.1-7.4,144.5-.7,216.5-1.1,19.3,19.3,26.9,34.7,29.8-4.3-132-1.3-264.3-9-396.2-7.1,0-14.2,0-21.3,0M1608,2428.5c5.2,18.5,9.9,37.3,10.1,56.6,2.1,0,6.1-.1,8.1-.1-2.3-19.2-2.1-38.6-5.3-57.6-3.2.3-9.7.9-12.9,1.1M1633.3,2425.4c3.4,19.3,1.9,38.8,3.4,58.2,15.7-11.5,17.9-34.6,11.6-51.8-1.7-7-9.4-6.5-15-6.5M1991.5,2432.6c-12.9,1.7-25.9,3.2-38.9,3.7,7.2,5.1,13.7,11.2,16.6,19.8,2.2,5.8,10.6,2.2,14.6.4,4-10.3,10.6-18.9,17.5-27.2-3.7-.4-7,.7-9.7,3.4M2797.9,2818.7c15.5-.2,31.1-.3,46.6-.9-10.6-128.8-14.4-257.9-24-386.7-7-.8-14.1-1.4-21.1-1.9-3.7,129.8-4.1,259.7-1.5,389.6M1398.8,2454.8c-.2,16.5.4,32.9,1.3,49.3,12.4-1.9,24.8-2.1,37.3-1.9,28.6-7.1,58.7-9,88.2-8.9,26.4-5.5,53.4-7.1,80.4-7.6-.4-18.5-4.5-36.5-10.5-53.9-65.6,7.4-130.9,18.5-196.8,22.9M1995.5,2467.5c5.3,123.6,10,247.3,16.5,370.9,6.2,11.3,9.2,24,11.4,36.7,5.7-5.1,3.7-14,6.4-20.6,1.1-10.5,11.9-17.1,11.4-27.9,5.6-119.5,11.2-239.1,13-358.8,1.2-13-4.1-25.7-13.5-34.6-8.3-3.3-17.7-.2-26.4-.4-8.2,10.3-19,20.6-18.7,34.8M3065.6,2430c-8.9,24.8-9.9,51.4-12.4,77.4-2,47.3-5.2,94.5-4.9,141.8.5,48.5-1.9,97.2,3.9,145.5,2.1,21.7,5.3,43.6,14,63.8,3.6-1.3,5.5-3.8,5.8-7.6,2.7-14.6,2.9-29.5,3.4-44.2,2.2-106.5,4.6-213,2.5-319.5-1.5-19.3-.3-40.8-12.2-57.2M1865,2445.5c11.9,5,13.9,25.6,28.8,22,.8-11.7,9-19.8,17.6-26.8-15.4,2.5-30.9,3.9-46.4,4.7M2699.4,2441.6c-2.4,127-3.6,254.1-6.2,381.2,15.5-.2,31.1-.6,46.7-.9-5.1-62.7-6.2-125.7-8.1-188.6-4.4-64.4-5.1-129-10.9-193.2-6.9.7-15.4-2-21.5,1.5M1057.5,2481.4c6.6,16.2,6.2,33.9,6,51.1,108.7-7.7,217-20.2,325.7-26.8-2.6-16.3-2.4-32.8-2.2-49.2-10.7-.4-19.5-6.2-27.5-12.5-100.7,12-201.4,25.1-302,37.5M1921.6,2445.7c-4.9,3.9-9.4,8.4-12.8,13.7-4.3,26.1-.3,52.8-.6,79.1.3,41,3.8,81.8,4.5,122.8,2.4,60.6,3.5,121.3,7.6,181.9,1.1,6.9,7.5,11.8,7.7,19,1.9,4.3-.4,11.6,4,14.6,7.5.3,5.9-9.5,7.1-14.2-.2-8.8,4.1-16.2,8.3-23.5,3.9-94.8,5.8-189.7,10.5-284.4.9-30.5,2.1-61,.4-91.5-1.4-17.4-22.5-26.7-36.7-17.4M2267.3,2443.3c2.2,67.3.5,134.7-3.7,201.8-1.5,58.8-6.2,117.5-11.2,176,12.7-1.3,25.5-.4,38.2-.5-5.2-57.1-3.8-114.6-7.4-171.8-1.9-68.5-6.4-137-8.9-205.4-1.8,0-5.3-.1-7.1-.2M2166.6,2450c.7,9.6,1.3,19.4,1.2,29.1-3,116.5-10.6,232.6-15.3,349,14.6,0,29.1-.6,43.7-.7-.3-25.3-2.5-50.5-3.9-75.8-2.8-100.7-10.6-201.2-13.4-301.8-4.1,0-8.2.2-12.3.3M2592.9,2450.7c-2.1,126.6-4.7,253.1-7.3,379.6,15.3-2.4,31.4-.9,46.2-5.4-3.4-30.9-2-62.2-3.8-93.2-4.6-94.2-8.1-188.5-13.7-282.7-7.2.2-14.4.7-21.5,1.6M1779,2454.5c6.6,5.4,12.4,11.9,16.1,19.7,2.2.3,6.7.9,8.9,1.1,2.6-9.1,7.1-17.4,13.9-24-12.9,1.3-25.8,2.8-38.8,3.2M1819.3,2475.7c-3,41.8,2.6,83.6,2.5,125.5,3.3,54.1,3.5,108.3,6.9,162.4,1.2,27.5,0,55.3,3.5,82.7,3.1,10.9,6.5,21.6,8.3,32.9,1-.5,3.1-1.4,4.1-1.9,1.8-7.5,3.4-15,4.9-22.4,10.5-5.7,5.7-18.7,6.9-28.2,3.4-86.8,8.2-173.5,11.8-260.2-.5-33,4.2-65.9,1.9-98.9-3.2-3.9-6.2-7.9-9.6-11.6-6.8-8.8-19.1-3.4-28.3-4-6,6.7-13.8,13.8-12.8,23.7M1692.8,2461.5c8.1,4.7,12.6,12.9,15.1,21.7,4.9.2,9.7.3,14.6.3,1.2-10.2,8.5-17.8,15-25.1-14.8,1.9-29.8,1.7-44.7,3.1M2509,2459.5c.3,126-5.3,252-9.2,378,11.8-1.9,23.6-3.4,35.5-3.2.3-34.3-4.8-68.3-4.7-102.6-5.2-90.2-7.7-180.6-9.9-271-3.9-.5-7.8-.8-11.6-1.2M1743.5,2468.6c-13.9,12.9-8.2,33.6-9.1,50.4,4.4,110.2,6.4,220.5,12.7,330.6,4.7,8.7,2.6,24.8,13.2,28.1,1.4-6.5.5-13.9,5.1-19.2,10.1-10.9,5.9-27.2,7.7-40.6-.3-48.4,4.5-96.6,4.6-144.9.8-47.4,3.9-94.7,3.7-142.2.6-18.3-.9-36.7,1-55-4.1-6.4-9.2-11.8-15.8-15.5-8.1,1.1-17.9.7-23.2,8.4M2066.4,2460.8c-1.7,123.8-7.9,247.4-13.7,371,13.6,0,27.1-1,40.7-.7-5.3-123.9-13.3-247.7-14.7-371.6-3.1.4-9.2,1.1-12.3,1.4M1653.3,2486.3c5.6,21,4.9,43.1,6.1,64.7.3,39.4,4.2,78.6,4,118,.5,55.2,3.9,110.4,4.6,165.7,0,16.1,1.6,34.5,13.9,46.1-7.3-8.6-.5-20.7,7.1-26.5,3-123.1,5.5-246.4,8.8-369.5-5.1-8.2-11.4-19.4-22.8-17.6-12-1.6-15.5,11.9-21.8,19.2M1971.7,2468c-.6,44.7-.4,89.4-3.6,134-2.3,78.8-6.4,157.6-8,236.5,12.9-.5,25.8-1.3,38.8-1.6-5.4-122.8-10.3-245.6-15.7-368.4-2.8-.1-8.6-.3-11.4-.4M1882.2,2479.5c0,51.3-2.2,102.6-5.2,153.8-1.6,70-8.3,139.8-8.5,209.9,12.7-.7,25.6-.7,38.4-1.5-4.3-120.8-9.7-241.5-11.6-362.4-4.4,0-8.8.1-13.1.2M1026.8,2503.2c1.2,13.6,13.6,22.1,23.6,29.6.7-15.5.3-31.2-2.5-46.5-8.2,3.5-19.3,6.6-21.1,16.9M1793.8,2486.6c1.1,71.3-3.7,142.4-4.5,213.6-3.2,48.7-3,97.4-5.5,146.1,12-.6,24-.1,35.9-1.9-3.6-46.6-3.3-93.4-6.4-140.1-1.3-72.8-7.5-145.6-6.6-218.4-4.4.2-8.6.4-12.9.6M1637.1,2496.2c-1.3,85.3-7.2,170.4-10.1,255.7-3.6,35.3-1.5,71-7,106.1,11.3-.6,22.8-.1,34.1-1.6,5.8-3.4,1.4-12.1,2.5-17.6-4.1-92.1-4.7-184.4-9-276.5-.8-22.7.4-45.7-5.1-67.9-1.3.5-4,1.4-5.3,1.9M1557.9,2500.2c5.1,5.6,9.5,11.7,14.4,17.4,5.5.9,11.1,1,16.7.5,7-1.5,5.2-10.5,7.6-15.4,2.1-2.1,4.2-4.2,6.3-6.3-14.8,3.3-30.1,1.7-45,3.9M1708.9,2499.4c-1,117-5.3,233.9-8.2,350.9,11.2-.1,22.3-.2,33.5-.2-4.2-118.3-10.6-236.5-12.1-354.9-4,1.3-13.6-2.7-13.3,4.2M1613,2497.7c-3,10.8-8.9,21.2-8.9,32.7-.3,73.8,4.5,147.5,5.1,221.3-.2,28.6,4.5,57.5-1.7,85.8l5.1-11,3.8,11.1c-6.2-33.7-1.8-67.8-.9-101.8,2.8-80,9.3-159.9,8.8-239.9-2.8.5-8.3,1.4-11.1,1.9M1482.3,2507c2.4,5,5.1,9.9,7.5,15,5.5.4,13.6,5.2,17.4-1,2.8-6.4,7.2-11.8,12.4-16.4-12.3,2.7-24.9,2.7-37.3,2.3M1517.5,2534.1c-.4,31.6.2,63.4,2.9,95,3.4,85.4,4.6,171,13.2,256.1,1.8,2,5.3,6.1,7,8.1,4.7-1.9,9.2-3.9,13.7-6.1,8.8-20.3,6.8-43.1,7.9-64.7,2.4-52.5,1.8-105.1,3.2-157.6.6-45.3,1.7-90.6-.7-135.8-4.9-9.5-11.6-18.4-20.2-24.9-14.9,1.7-27.4,14.5-27.1,29.9M1406.5,2515.5c0,6.6,4.5,15.8,12.5,13.4,7.9-.4,7.1-10.9,12.9-14.6-8.4.6-16.9.9-25.4,1.3M1442.8,2520.5c-11.6,12.3-8.1,30.4-8.8,45.8,4.3,107.4,6.4,214.9,11.6,322.2,6.6.4,13.2.9,19.8.9,6.6-31.9,4.9-64.8,7.6-97.1,3.3-84.4,7.8-168.9,8.5-253.3,1.2-12.1-6.2-21.1-14.8-28.3-8.8.3-18.3,2.3-23.9,9.8M1064.1,2544.7c.2,12,14.2,11.4,22.8,10.6,25-2.8,50-5.8,74.9-8.9,64.4-7.1,128.1-20.4,192.7-25.4-11.3-3.9-23.1.9-34.5,1.5-85.5,5.8-170.5,16.6-256,22.2M1323.9,2535.7c-80.3,11.5-160.5,23.8-241.1,32.9-6.6.9-12.9-2.1-19.2-3.5-.1,95.1,3.8,190.2,1.9,285.3,1.3,2.5,2.9,5,4.6,7.3-1.5-10.3-2.6-25.1,9.9-28.7,10.8-5.2,17.3,8.2,22.8,15.2,0-23.1,6.8-53,31.4-61.3,18.6-5.1,34.3,11.3,38.7,28,8.4,31.1,8.6,65.7-3.7,95.9,8.8,14.6,26.1,26.8,24.4,45.6-3.3,16.5-21.9,20-32,30.3,12.6,4.9,29.2,12.8,28.2,28.8-3.5,14.2-18,20.5-30.1,25.9,12.9,12.4,18.2,30.2,21.3,47.4,51.1-1.6,102.2-1.4,153.2,2.2-3.1-32.7-3.9-65.5-6.9-98.2,14-13.6,32.6-20.5,50.3-28,.4-21.3.5-42.5,1.6-63.7,1.9-1.2,5.9-3.5,7.8-4.7,4.3-52,6.5-104.3,8.8-156.4,4.8-52.6,2.3-105.4,5.1-158.1-1.1-19.5,4.3-41.3-7.2-58.6-21.9,9.9-46.1,12-69.5,16.3M1578.1,2529.2c-1.6,117.6,1.5,235.5-7.2,352.9,9.4-.2,18.9,0,28.2,1.9,7.1-17.6,0-35.6.4-53.6-3.2-100.7-5.8-201.3-8.4-302-4.3.2-8.7.4-13,.7M1493.9,2534.8c-2.2,115.5-6.7,231-13.8,346.3,13.6-.9,27.3-1.4,40.8-3.1-5.1-35.4-3.7-71.2-7.3-106.7-1.8-78.5-7.9-156.9-8.3-235.3-2.8-.3-8.5-.9-11.3-1.1M1411.7,2539.8c2,44.3-1.1,88.6-1,132.9-2.9,71.1-5.7,142.2-11.1,213.1,11.2,0,22.5.3,33.8.2-6.8-115.2-7.5-230.7-12.8-345.9-2.2,0-6.6-.2-8.8-.2M509.6,2578c4.3,6.8,10.5,11.9,17.1,16.4,16.8,10.9,35,23.3,56.1,18.9-2.2-34.3-45.7-45.6-73.2-35.3M818.3,2675.1c-8.2,27.3-7.3,56.2-7.3,84.4-.3,10.5,2.1,22.7,12.4,27.9,16.7-11.2,20.8-33,22.9-51.5,1.3-26.6,1.8-54.3-7.1-79.8-11.4-.5-18.1,9.3-20.9,19M1114.8,2850.2c-2.2,25.4,14.7,50.2,4.9,75.3-1.8,8.6-14.8,11.8-19.7,4.2-10.4-12.3-17.7-26.8-25.6-40.6-5.3-9-8.7-19.8-18.2-25.5.6-15.9-8.2,2.1-15.9-2.8-20-5.4-45-8.4-59.7,9.6,6.7,22.6,43.4,7.2,46.9,31.1-3,26.8-18.4,50.4-32.8,72.5.1.8.4,2.4.5,3.2,18.6-22.9,60.6-5.9,58.6,23.3-1.4,33.8-55.4,37.7-67.5,9-5.5,22.1-19.3,41-26.8,62.3,21.2,7.1,46,13.1,58,34.1,9.6,15.5-.9,34.4-14.2,43.7-24.6,17.4-56.1,26.4-86.1,20.4-10.9-2.3-20.4-8.4-31-11.4-21-3.7-41.1,11.1-49,29.9-10.3,23.3-10.2,50-6.3,74.9,71.7-17.5,141.2-42.7,209.5-70.6,29.7-13.4,61-23.4,89.5-39.1-.6-7.9-3.4-15.5-4.5-23.3-3.9-7.1-10.5-15.2-5.3-23.5,9.2-17.2,30.4-20.4,48-21.5-1.8-12.4-5.2-24.9-12.7-35-6.1-9.8-23.3-5.6-25.7-18.7,15.7-7,42.3-2.1,48.4-23-7-14.2-28.3-13.5-35.2-28.2,9.9-12.9,27.8-15.3,38.6-27.1,1.5-18.8-17.9-29.2-30.3-39.7-5.2-9,9.5-11,10.2-19.1,6.2-24.5,6.9-51,.9-75.6-3-12.4-12.5-30-28-23-17.4,11.7-19.3,35.3-19.3,54.4M2896.1,2862.3c14.1.3,28.1,2.2,42.1,2.7-.3-11.6,0-23.3-1-34.8-11.6-2.4-23.2-12-34.6-10-7.9,12.4-3.3,28.3-6.5,42.1M2245.4,2836.2c-5.1,12-4,25.5-4.6,38.2,16.8.2,38.6,3,48.7-14,7.9-7.5,4.4-18.3,3-27.6-15.7-1.2-32-1.7-47.1,3.3M2789.3,2838.2c-1.7,10.5-1.7,21.3-3.2,31.9,22.7-1,45.1-4,67.8-4.9-.9-11.6-1.9-23.1-2.4-34.6-14.8-1.9-29.6.7-44.4.3-6.6.3-15.9-1.2-17.7,7.3M2310.8,2848.2c6,8.7,17.4,9.2,27,10.5,13.9,1.2,28.1,3.7,41.9.7,1-4.5-3.7-6.7-6.1-9.4-12.2-10.9-29-13.4-44.4-16.5-4.3,6.9-11.4,10.8-18.3,14.6M2686.1,2836.2c-2.7,12.7-3.7,25.7-4.8,38.7-3.1,1.3-6.2,2.6-9.2,4,26.8-1.3,53.7-4.3,80.7-5.6.6-12.9-2.7-25.5-5.2-38-20.4-2.1-41.2-1.6-61.5.9M2046.4,2846.5c-5.8,8.6-4.7,20.9-7.7,30.9,21,1.5,42,.6,63,.8-.7-11.6.4-23.5-2.6-34.7-17.4-2.1-35.6-.4-52.7,3M2146.4,2840.2c-3.9,12.5-5.6,25.6-6.4,38.8,22.4,2,44.9.5,67.2-1.4-2.8-12.4-3.5-25.1-4.9-37.7-18.7-1.1-37.3-.7-56,.4M2579.7,2842.5c-2.1,12.7-4.6,25.5-4.2,38.4,23.1,1.1,46.2-1.1,69.2-3-2.8-12.9-4.5-26-7.3-38.8-19.3.1-38.7-.4-57.7,3.4M1079.8,2870.6c6.7,17.9,16.9,34.4,28.9,49.2,4.5-27.5-7.7-55.2-22-77.9-10.9,3.5-5,19.8-6.9,28.6M2494.2,2859.9c-2.3,7.6-5.2,21.5,4.9,24.7,15.8.6,31.5-2.1,47.3-2.8,2-11.8.1-23.9-3.8-35-16.1.4-39.4-3.7-48.4,13.2M1947.8,2874.6c-.7,6.1,7,5.3,10.8,6.2,16.9.6,33.9-1.2,50.7-2.6-4.3-9.4,1.3-30.9-14.6-29.1-13.4-.4-26.7,1.3-40.1,2-2.5,7.7-5.1,15.5-6.8,23.5M1861.7,2858.3c-1.1,8.8-3.4,17.3-5.7,25.8,20.7.9,43,2.7,62.9-3.7-2.7-8.4-2.6-17.8-6.8-25.5-16.7-.4-34.3-2-50.4,3.4M1770.5,2885.8c18.9-.6,37.9-.4,56.8-2.5-1.3-7.9-2.2-15.9-4-23.6-12-3.5-25.5-1.2-38-1-14.6-.4-10,18.2-14.7,27.2M1695.7,2862.7c-4.2,7.2-7,15.5-6.7,23.9,17.6,1.8,35.2-.3,52.8-.7.3-8.2-1.6-16-3.2-23.8-14.2-2.5-28.7-.9-42.9.6M1616.2,2870.6c-4.3,3.2-3.2,9.7-3.8,14.6,18,4.7,37,3.9,55.1.4-1.5-6.6-4.7-12.4-7.8-18.2-14.5.7-29.2.5-43.6,3.2M2834.9,2882.6c-22.1.8-44.4,4.1-66.5.2-36.2,8.9-74,8.2-111,7.8-43.6,7-88.1.3-131.8,6.3-12.2,2.4-25.1-1.9-36.8,1.6-8.5,10.8,1.3,26.8,14.5,26.2,64.7,2.5,129.4-3,194.1-4.2,80.3-3.5,160.6-5.9,240.8-8,1.4-11.4.7-22.8,1.7-34.2-24.2-3.8-48.7-2.2-73-3.9-8.8,7.7-21.1,7.4-32,8.2M2950.6,2877.7c.7,11.2.5,22.5-.7,33.7,38.2-.3,76.3-3.4,114.4-6.6,15.8-3.1,33.4-1.2,47.8-9.2-51.4-19.3-107.4-16.8-161.4-18M1474.4,2893.6c-1.3,6.7-.7,14.2-3.8,20.6-3.1,2.6-9.9,3.3-12.4-.2-.2-5.3-.3-10.6-.2-15.8-2.8.4-8.4,1.2-11.2,1.5-.9,21.5,3.4,42.7,3.4,64.2,37.1,4.5,76.3,4.3,110.6,20.8-3.9-28.4-9.4-56.7-7.9-85.6-10.5,1.5-5.2,16.3-16,17.5-11-2.8-8.5-17.3-12.6-25.8-16.7,1.3-33.4,1.1-50,2.8M1391.5,2904.4c-1.1,18.3-1.3,36.6-.6,55,15.8.7,31.5,2.9,47.4,3.8-2.7-21.1-4.3-42.3-4.9-63.5-10.3-.4-20.7-1.3-31-.6-3.9.4-9.7.6-10.9,5.4M1565.6,2896.3c-.9,28.5,1.6,57.1,8.2,84.8-.3,3.2-.9,6.3-1.7,9.5,48.5,5,97.5,5.2,146.3,5.9,60.1,2.8,120.2,3.6,180.2,7.7-3.9-12.3,2.3-23.8,13.6-29.2-97.2-8.8-194.8-6.2-292.1-10.2-10.4-.3-16.8-9.7-24.2-15.7-1.3-17.7,1.5-35.3,2.2-52.9-10.8-.7-21.7-.6-32.5,0M2231.6,2937.1c-105.3,0-210.6-1.8-315.9,1.9-36.7,3.2-73.6,1.7-110.2,5.5-57.7,2-115.2,7-172.7,10.1,13.8,3.3,28-1.7,42.1-.6,56.7,2.7,113.5,1.6,170.3,4,48.6,2.6,97.2,6.8,145.9,6.9,70.8,4,141.9,2.1,212.5,9.6,33.3,3.5,67.8,4.7,99.2,17.2,17.3,6.6,22.2,27.5,16.2,43.6,0,41-1.9,82.1,1.2,123,3.7,27.7,6.3,60,29.2,79.4,10.7,9.8,26.4,8.2,39.5,5.8,31.6-9.2,52-39.7,60.4-70,4.7-28.6.7-57.9,1.7-86.7-1.5-45.6.7-91.1.6-136.7-19.2-10.6-41.6-11.6-63-12.4-52.3-1.2-104.7-.3-156.9-.7M2950.1,2964.7c-1.3,88.4-8.2,176.6-7.4,265-1.1,12.2,13.2,14,22.3,14.3,42.6,1.6,85.4,2.9,128,.4,4.1-.4,10-.8,9.5-6.6,8.4-61.7,9.6-124.1,11.3-186.3-.2-22.3,1.7-45.1-3.3-67.1-6.5-15-24.6-16.1-38.5-18.2-40.5-3.7-81.3-3.2-121.9-1.6M1348.6,2986.4c27.3-.3,54.7.3,82,0,7,2.8,10.6-4.9,7.7-10.6-18.5-1-37-4.7-55.6-3.2-11.8,3.3-23,8.4-34.1,13.8M1450.1,2976.4c.2,3.2.3,6.4.5,9.6,27.3,2.6,54.7,2.3,82.1,2.1,3.4-.9,9.3,1.1,11-2.3-31.3-1.3-62.1-8.9-93.5-9.5M2070,2980.9c-.6,14,.4,28.1-1.1,42.1,67.1-2,134.6-6.2,201.7.2,13.2.8,25.5,6,37.5,11.2.4-8.2,2.8-17.5-2.7-24.5-8.5-9.8-22.1-11.8-34-14.4-31.7-5.8-64-7.7-96-10.3-35.2-.3-70.1-5-105.3-4.2M1006.2,2983c-5.6,5.6-10.8,13-9.9,21.3,8.9,15,34.4,16.3,44.1,1.7,8.6-18.5-19.7-35.4-34.2-23M1911.6,2990.2c-1.3,9-6.3,25.4,6.8,27.6,45,12.5,92.3,5.9,138.4,5.6-.2-12.7.7-25.4.9-38-48.7-.1-97.7-2.1-146,4.8M1341.1,2997.8c-.5,13.9.4,27.9,1.6,41.8,1.8,18.2-.2,37.6,8.9,54.2,14.1,5.8,34.4,8.2,39.7,24.9-4.6,9.7-7.9,20-8.3,30.8,89.4,4.2,179,3.2,268.3,8.6.6-10.8,1.7-21.5,1.8-32.3-55.6-4.1-111.4-5.5-167-8.5-14.1-1.4-28.8.9-42.5-3.1-6.1-11.7,7.1-23.6-1.8-35,2.5-26.7.2-53.7-1.8-80.4-33,0-65.9-1.8-98.9-1M1452.8,2999c1.7,24.1,1.6,48.3,3.4,72.5,7.9.3,16.1-.6,20.6-7.9,7.5-11.1,22.5-9.7,32.2-17.3-3-4.5-4.5-9.5-4.4-14.9,11.6-3.9,24.2-3.6,35.8-7.8,5.3-6.2,2.1-15.8,3.4-23.3-30.3,0-60.7,1.4-91-1.3M1554.7,3023.1c96.7.4,193.4,3.8,290.2,5.9,17.2.3,34.5,2.5,51.6.2,1.4-4.3.4-8.5-.4-12.7-42.1-4.2-84.3-3.8-126.5-5.8-64.2-3.4-128.7-2.1-192.9-7-6.9-.1-14-5.9-20.5-2.5-1.9,6.9-.7,14.6-1.5,21.9M1908.9,3027.7c1.5,10.9-1.5,22.7,2,33.1,14.2,8.4,33.5,8.9,44.7,22.6.4,2.4,1,7.3,1.3,9.8,32.9,7.5,63.8,22.2,96.7,29.6,2.3-29,1.9-58.1,2.9-87.1-49.2-.7-99.6,6.2-147.6-8M2540.5,3054.9c-6.1,46.5-1.5,93.8,6.3,139.9,2.3,8.8,2.1,19.4,8.5,26.6,6.7-.3,8.3-8.3,10.6-13.3,12.1-41.9,10.9-86.4,7.1-129.5-3.6-18.7-3.6-40.8-18.7-54.5-10.7,6.3-11.2,19.9-13.8,30.7M1522,3038.9c2.6,3.2,6.3,5.7,10.8,4.7,34.4-.7,68.6,3.9,103,3.9,61.9,2.2,123.8,5.1,185.6,7.8,25.8-.7,51.2,5.2,77,3.7-.2-5.4-.2-10.9-.5-16.2-18.9-2.3-38-1.5-56.9-2.2-94.7-2.3-189.4-5-284.1-4.8-11.7-.1-23.4,1.2-34.9,3.1M1486.2,3071.4c51.2,2.2,102.4,3.1,153.7,3.7,45.9.7,92-2,137.8,3.1,55.5,2.6,110.9,8,166.3,12-11-11.9-28.5-14.8-43.8-17.9-83.4-6.7-167.2-9.2-250.9-12.4-44.4-.5-88.7-5.9-133.1-3.9-10.2,4.8-21.9,7.2-30.1,15.3M1465.6,3082.9c-2.9,7.5-6.5,14.8-10.8,21.7,66.5,2.4,133.3,3.5,199.6,9.5.3-9.1.5-18.3,3.3-27-39,.4-78,.4-117-1.9-25-1.3-50.2.5-75.1-2.3M1755.6,3118.1c91.2,4.7,182.3,15.1,273.7,15.1,3.7.8,4.4-3.7,5.9-6l-6.6,4.5c-27.1-11.1-54.9-20.4-83.1-28.2-29.5-4-59.3-4.2-88.8-7.5-33.1-1.3-66.3-6.6-99.3-5.2-.9,9-.9,18.2-1.7,27.3M2145.8,3149.6c-10.9,38.8-14.7,79.2-20.8,118.9,42.3,2.2,84.6,3.2,127,3.2,5.6,1.3,6.5-5.7,9.1-8.8,22.2-42.7,26.3-93.9,14.8-140.3-3.5-15.4-16.6-27.6-32.1-30.2-40.3-6.6-86.3,16.7-98,57.3M728.4,3106.4c10.5,25.3,40.3,33.5,64.8,37.8-1.6-19.6-12.1-39.9-30.9-47.8-12-3.3-28-3.2-33.9,10M1130,3114.5c12.7,2.4,25.5,3.9,38.5,3.6-.2-7.1-.4-14.2-.7-21.2-13.4,1.5-32.6,2.5-37.8,17.6M1180.1,3120.1c4.5.9,9.1,1.1,13.7.7.4-8.3,0-16.7.4-24.9-4.2-.2-8.4-.2-12.5.2-2.6,7.6-1.1,16.1-1.5,24.1M1205,3095.7c-.2,7.8.3,15.6,1,23.4,36.7-12,75.3-16.2,113.3-22.4-38.1-1.9-76.2-1-114.3-1M1667.7,3095.3c-.3,6.4-.4,12.8-.3,19.3,25.9-.4,51.6,3.6,77.5,3,.7-8.6,1.2-17.3,1.3-25.9-26.1,2.8-52.3,6.6-78.6,3.6M673.2,3138.3c-14.8,49.7-13.1,104.5,4.5,153.3,28.9-1.8,57.5-9,86.4-12.3,5.2.2,6.9-5.1,9.1-8.6,19.3-34.1,24.8-75.2,19.8-113.6-27.1-5.1-55.4-15.1-72.9-37.5-4.5-4.4-4.1-10.7-4.9-16.3-21.3-6.8-36.2,17.6-42.1,34.9M1321.1,3108c-24.7,6.4-50.3,9.1-75.4,13.2,43.6-2.1,87.3-1.1,130.9-2.9-15.8-10.3-37.1-18.5-55.5-10.3M1666.6,3126.9c-3.5,9.6-2.1,20.6-3.2,30.8,13.9.3,30.5.4,39.5,12.8,2.7,49.8-2.9,100,4.5,149.6,2.4,19.8,36.3,22.1,38,.6,2.4-63.5-2.2-126.9-.5-190.4-25.9-3.5-52.2-4.2-78.3-3.3M1179.2,3126.4c-.2,4.8,2,9.2,4.5,13.2l-5.1,4.3c-1.3,44.2,2.8,88.6-1.2,132.7-8.9,16.3-30.6,18.7-46.3,26.2,37.9-1.5,75.8,2.1,113.7,3.7,127.1,5.1,254.1,10.5,381.1,15.6.6-8.5.2-16.9-.4-25.3-19,.1-37.9-.6-56.9-.6-78.7-5-157.6-6.6-236.4-11-43.6-.4-87.1-4.6-130.8-4.9-5.7-3.1-4.8-10.4-5.4-15.8-1.2-42.3-.7-84.7-2.2-127-6-2.3-8.6-8.6-14.4-11M1206.3,3131.5c.6,45.3-.2,90.7,2.2,135.9,13.9-11,30.4-16.9,47.1-22.4-.6-3-1.9-8.8-2.5-11.7,12.1-11.6,30.2-12,45.1-18.3.2-9.4-5.7-21,1.2-28.8,10.7-5.3,22.9-5.7,34.3-8.6-.6-3-1.7-8.8-2.2-11.8,8.7-12.1,26.4-9.5,38.9-15.2,1.2-6.9,2.4-13.7,3.9-20.5-56,1.3-112,1.1-168,1.4M1133.9,3130.5c2.8,5.5,4.2,12.3,8.7,16.8,9.1-3.2,21.6-6.1,24.6-16.6-11.1-.1-22.2-.2-33.3-.2M1756.6,3130.5c-.4,51.4,1.9,102.8,1.9,154.2-.5,17.1,3.7,35.8-5.1,51.5,15.9,2.9,32.1,3.3,48.2,3.6,66.9,2.9,133.9,3.3,200.8,3.4,39.8,0,79.6,1.1,119.3-3.2,35.6-2.5,71.1-12.6,100.7-33.1,9.2-6.7,19.2-13.5,24.6-23.8-42,.5-84.1-.5-126-2.5-18.1,22.1-56.6,18.7-68.9-7.5-18.5-41.2-7.5-87.4-9.4-130.9-55.2,6.4-110.8-2.1-166.1-3.8-39.9-3.6-79.9-4.3-119.7-7.9M1126.4,3169.4c-86.7,37.3-174.3,73.8-265.5,98.8-10.5,2.9-21.3,4.9-31,10-18.6,1-36.3,7.5-54.3,11.4-16.9,21.3-43.1,37.6-71.1,35.1-12.6,0-23-8.3-31.4-16.8-73.7,8.2-147.7,13.6-221.8,18.1-41.1,3.7-82.8,2.7-123.4,10.8l-7.1-4.2c1.3,2.3,2.1,6.6,5.8,5.8,11.4-1.3,22.8.7,34.3.9,82.9,4.6,165.9,3.2,248.9,4.5,95.9.1,191.8,1.8,287.8,2.6,188.2.5,376.3.9,564.5.7,82.4-.4,164.9.3,247.1-4.8-9.4-3.7-12.8-13.9-14.4-23-5.2-36.5-2.4-73.3-3.3-109.9-10.2-.2-20.4-.5-30.5.3-.2,24.7-1.8,49.6,2.2,74.1-4,10-16.9,9.2-25.6,12.2.3,11.9.4,23.9-1.6,35.8-17,3.2-34.3.6-51.5.2-150.1-5.6-300.1-11.8-450.1-18.6-7.9-1.3-24.9,3.2-24.3-9.4,13.3-16.8,39.6-15.9,53.9-31.7,6.9-40.3.4-81.6,2.2-122.3-12.4,8.2-26.5,12.9-39.9,19.1M807,3158.1c1.9,39.5-3.2,79.9-20.6,115.9,11.1-1.7,22-4.8,32.7-8.4-3.5-34.8-5.6-75.7,19.9-103.3-10.4-3.1-21.2-4-31.9-4.2M1346.6,3168.7c.3,2.8.7,5.6,1,8.5,100.9,8,202.1,10.5,302.9,19.5,0-9.1.3-18.2.7-27.1-85.4-4.1-170.8-4.7-256.2-7.5-16.5-1.5-32.5,2.9-48.4,6.6M1662.9,3169.8c0,9.1-.2,18.2-.2,27.3,9.4.2,18.7.6,28.2,1-.2-8.2,0-16.5-1.3-24.6-8.1-4.7-17.8-3.1-26.7-3.7M1309.5,3194.9c0,6.1,0,12.2.2,18.4,113.1,3.2,226,11.2,339,14,.5-6.1,1.1-12.2,1.5-18.2-94-8.5-188.4-11.6-282.6-18-19.4-1.7-39.3-2.5-58,3.8M1266.7,3237.5c3.8,3.9,9.1,4.1,14.3,4.1,122.6,5.7,245.2,13.3,367.9,16.9-.2-6.2-.4-12.3-.6-18.4-88.4-3.1-176.7-7.9-265.1-12.3-38.8-2-79.9-7.3-116.5,9.6M1227.1,3268.2c112.3,6.6,225,9,337.4,15.5,28.3-.3,57,4.3,85-1.7,0-3.7,0-7.3,0-10.9-120.4-5.2-240.8-10.9-361.2-16.7-21.4-2.5-41.8,5.2-61,13.7M2105.5,3278.1c-13.2-1.1-26.9-1.4-39-7.6,7.8,13.2,26.8,17,39,7.6M686.4,3304c20.9,20.5,53.8,4.9,71.3-12.7-23.5,5.7-47.6,8.5-71.3,12.7M2798.3,533.8c-1.8-10.1,6.8-15.6,14.1-20.3,20.1,14.5,17.8,41.6,19.9,63.5,0,23.8.6,47.5-.2,71.3-2,9.6-3.9,24.5-16.6,24.3-7.8,1.8-14.4-5.1-13.6-12.7-1.5-42-2.9-84.1-3.7-126.1M2813.1,530.2c-4,43,1.6,86.3,2.5,129.4l1.8-1.9c7.8-29.9,3.4-61.2,1.7-91.6-1.1-12.1-2.4-24.3-6-35.9M2942.7,976.3c14.3-7.5,22.5,10.1,25.8,21,7,26.4,10.6,54.2,8.3,81.6-1.1,9.7-4.3,22.6-15.7,24.3-12.4,3.3-22.3-7.3-25.3-18.3-6.6-23.9-6.2-49-5.8-73.5.5-12.4,2.1-26.9,12.7-35M2946.9,987.8c-8.8,27.9-4.7,58.2-.7,86.6,1.3,7.1,4.3,19.7,14.2,15.3,9-21.2,2.8-45.2,1-67.3-2.9-11.7-2.3-28-14.5-34.6M2867.8,980.2c4.6-1.8,9.2-1.9,13.9-.1,9.7,10.5,11,25.6,12.7,39.1.9,19.9,1.5,39.9-.3,59.8-1.5,10.7-7.2,24.2-19.8,24.5-14.8,2.9-20.7-13.9-22.7-25.2-2.6-20.8-2.3-42,.3-62.8,2.4-12.6,5-27,15.8-35.4M2872.2,991.9c-11.5,20.2-9.6,44.4-9.9,66.7.9,11.5-.9,26.5,10.3,33.7,1.1-.8,3.5-2.3,4.7-3.1,3.1-7.2,5.8-14.7,5.5-22.7.3-24.5,1.7-49.7-6-73.4-1.1-.3-3.4-1-4.5-1.3M2788.1,983.3c10.1-9.1,24.1,2.6,25.5,13.7,4.4,22.8,2.2,46.4,2,69.6-1.4,12.8-2,29.3-14.4,36.9-9.7,6.7-24.2,1.3-28.3-9.4-7.5-24.2-3.5-49.8-.5-74.4,2.6-12.8,4.4-27.8,15.6-36.3M2794,993.3c-5.7,6.7-6.9,15.7-8.7,24-3.5,22.1-6.8,44.9-1.6,67,.4,5.3,4.9,8.4,9.2,10.9,9.6-9.4,10.3-23.8,10.7-36.5,0-18.7,1.2-37.5-1-56.1-1.7-3.9-2.6-11.9-8.6-9.4M3017.9,989.1c7.4-6.6,19.2-3.6,24.7,4,15.4,18,17.3,42.6,20.5,65.1,1.7,17.2,3.6,36.8-7.3,51.5-13.5,8.3-29.6-4.2-34.3-17.2-8.2-22.1-8.7-46.2-11.2-69.5.7-11.3-1.4-25.4,7.7-33.9M3022.7,1027.4c2.7,21.6,3.3,44.3,12.4,64.4,1.7,5.7,7.3,6.9,12.5,6.6,7.1-17.8,2.6-37.1.6-55.4-3.2-16.5-6.7-35.3-21.3-45.9-7.2,8.3-4.5,20.2-4.3,30.2M2718.4,993.4c11.9-7.8,22.7,6.5,22,17.8.4,28.6-1.9,57.9-9.3,85.7-3.4,16.5-30.4,24.2-36.5,5.6-5.2-21.8-.9-44.8,3-66.6,3.2-15.4,6.6-33.1,20.8-42.4M2722.6,1003.1c-10.3,15.2-13.9,33.4-16.8,51.2-1.5,14.2-4.1,29,0,43.2,5.6,9,13.4-.7,14.4-7.3,6.5-22.8,7.5-46.9,7.9-70.5-.8-5.6,1.6-14.1-5.4-16.5M2761.5,1356.1c16.4-7.2,36.1,2.2,40.8,19.5,8.4,38.6,4.6,78.6,1,117.6-1.3,11.6-6.7,25.3-19.4,27.9-15.2,4-37.8,2.1-41.9-16.4-6.7-37-7.5-75.3-2.7-112.6,1.3-14.5,7.9-30.1,22.2-36M2761.7,1369.2c-10.5,10.8-10.7,27-12.4,41-1.1,26.4-1.5,53.2,2.6,79.4.7,6.1,1.7,12.5,5.8,17.4,10.9,6.2,30.7,5.1,32.8-10,4.5-30.1,5.4-60.8,4.1-91.2-1.2-11.3-1.5-23.6-8-33.4-5.1-8.5-17.7-8.8-24.9-3.2M2863.8,1355.2c15.4-8.9,36.3-.8,43.9,14.7,7.7,16.1,7.1,34.4,7.3,51.9-.2,26.6.7,53.9-7.7,79.5-2.6,9.4-11.4,16-21,16.6-11.8,1.3-27.5,1.3-33.7-10.9-6-14.3-6.7-30.1-8.3-45.4-1.7-25.1-2.4-50.5,2.1-75.3,2-11.8,7-24.1,17.4-31M2868.7,1367.7c-10.2,9.6-11,24.7-12.6,37.8-1.6,30.5-1,61.7,5.9,91.6,4.1,13.3,21.9,9.9,31.8,5.9,9.7-24.5,8.8-51.5,9.2-77.4-1.2-17.4,1.5-36.4-7.7-52.1-5.1-9-18.3-12.8-26.6-5.7M2976.7,1354.6c10.3-1.3,22.4-1.3,30.5,6.3,9.2,8.5,11.1,21.7,13.1,33.5,2.6,28.9,2.1,58,0,86.9-2.2,14.2-4.5,32.4-19.3,38.9-13,1.1-30,3.3-38.5-9.1-9.8-17.5-8.9-38.4-10.1-57.9-.9-22.1-1.2-44.5,2.4-66.5,2.1-13.1,8.4-27.7,22-32.2M2975.2,1368.5c-12.2,16.4-9.7,38.2-11.7,57.5.4,23.7.6,47.7,5.9,70.9,1.9,16.3,29.3,18.7,34.1,3.2,6.4-20.1,5-41.4,6.1-62.2-.8-20.4.4-41.6-6.4-61.2-4-10.6-19.3-16.3-28.1-8.2M2663.1,1364.5c11.7-5,27.7-1.9,33.8,10.1,6.1,12.2,6.6,26.2,8,39.5,1.1,27.4,2,54.9.5,82.3,0,11.1-5.4,23.4-16.3,27.7-10.9,4-23.1,5.4-34.3,2.7-9.4-3-11.3-13.7-12.9-21.9-4.6-32.9-5.4-66.3-2.4-99.3,1.7-15.9,6.3-35.6,23.6-41.1M2651.6,1405.5c-3,32.8-1.7,66.2,3,98.8,1.3,17.7,22.6,12.6,33.5,7.1,7.9-16.7,5.6-35.8,6-53.7-.9-22.4.6-45.1-4.5-67.1-1.5-7.7-6.9-17.1-15.9-16.8-16,.3-20.4,18.9-22.1,31.8M3076.3,1362.7c17.9-7.7,39.6,4.3,42.9,23.5,7.2,40.5,5.2,82.3.3,123-.7,10.2-8.8,20.5-19.8,19.3-14.2,0-33.9-1.5-38.7-17.8-7.1-30.5-5.3-62.1-4.4-93.1,2.5-19,1.9-42.9,19.8-54.9M3082,1373.4c-5.3,2.2-6.8,8.4-8.6,13.3-6.2,25.7-5.2,52.3-5.3,78.5.4,15.2-.2,31.3,5.9,45.5,8.2,5.9,19.4,6.4,29,4.7,6.2-8.6,4.4-20.2,6.3-30.2,1.9-31.5,3.4-63.4-1.7-94.6-1.1-11.7-13.8-23.3-25.7-17.2M2572.5,1376.7c8.5-5.1,20.8-3.8,27.4,3.9,8.2,9,9.7,21.8,10.7,33.4,1.9,34.2,4.6,68.8-.6,102.9-1.5,15.4-18.7,18.1-31.1,19.4-6.7.2-14.8,1.5-19.7-4.2-4.4-9.8-4.1-20.8-4.5-31.3-.4-31.5-5.1-63.1-.5-94.4,1.5-11.8,6.6-24.6,18.2-29.8M2566.6,1406.2c-5.6,39,.2,78.4,1.8,117.5,11.7,2.6,32,.9,30.5-15.5,3-32.5,1.4-65.4-1.3-97.9-1.6-8.5-2.2-20-11-24.3-11.9-2.4-19.2,10.1-19.9,20.3M3171,1378.5c14.9-9.1,34.7,3.2,37.9,19.2,7,35.2,2.9,71.2,2.7,106.8-1.7,10.7,2.1,25.5-9.3,31.6-16.7,4.7-44,2.2-47.1-19.1-3.5-34.4-3.1-69.2.4-103.6,1.7-12.7,3.9-27.3,15.5-35M3168.1,1410.2c-3.8,35.4-3.8,71.2-.5,106.6,5.2,10.7,20.6,10.5,30.3,6.7,3-37.6,5.2-75.7.8-113.3-.3-9.9-5.5-20.9-16.1-22.8-10.8,1.3-12.9,14.1-14.4,22.8M2496,1390.4c7.5-3.6,18-2.7,23.3,4.3,5.9,8.5,8.4,18.9,8.9,29.2,2.5,34.6,5.5,69.6.9,104.2-1.4,20.2-28.5,28.8-44.4,19.9-6.5-7.9-5-18.5-6-28-1.2-33.9-4.6-67.9-.6-101.7.8-11.5,6.8-23.3,17.8-27.9M2490.9,1418c-6.1,38.4.5,77.3,1.9,115.9.9,7.3,9.9,6.9,15.3,5.4,11-6.2,9.9-20.1,10.5-30.8.2-31.6,1.2-63.5-4.3-94.8-.9-6.4-4.7-11.6-10.1-14.8-7.5,3.7-12.5,10.7-13.3,19.1M3249.6,1390.3c7-4.2,15.5-2.1,22.6.9,12.2,6.8,15.5,21.8,16.8,34.6.6,37.7.9,75.9-5.4,113.1-3.9,13.2-20,11-30.1,7.7-8.5-2-16.3-9-16.8-18.1-4.9-36.8-1.2-74.1,1.3-110.9,1.7-9.6,2.9-21.4,11.6-27.3M3249.3,1425.6c-2.8,35.2-4.9,70.9.6,105.9,6.9,3.9,14.4,5.5,22.4,4.1,4.1-35.2,5.6-70.6,4.5-106-.9-11.4-3.5-25.3-15.2-30.4-10.8,4.1-11.3,16.6-12.3,26.4M2429.9,1410.4c6.9-5.1,17.9-3.1,21.3,5.2,7.4,13.9,6.6,30.4,9,45.7.6,28.9,7.1,58.4,0,86.9-4.5,17.2-34,24.1-39,3.6-5.4-29.8-3.7-60.5-5.4-90.6.3-17.3-2.4-39.7,14.2-50.7M2428.2,1461.2c1.2,28.7-.9,57.9,5.1,86.1,1.6,8.8,13.6,4.2,14.6-2.7,5.6-27.6.6-55.8-.3-83.6-2.1-14.1-1.1-29.7-9.1-42.1-12.5,10.3-9.4,28-10.4,42.3M3318.8,1412.4c13.5-9.3,30.7,6.3,29.8,20.8.2,34.5,1.3,69.1-1.3,103.5-1.3,9.7-1.6,24.9-14.8,25.5-10.8-1.3-24.3-5.8-27.5-17.5-3.8-31.6-1.2-63.5.8-95.1,2.2-12.8,1.2-28.8,13-37.3M3318.1,1453.6c-1.5,27.5-4.3,55.3-1.6,82.8-.8,8.8,7.9,12.5,14.6,15.2,8.4-26.4,3.8-55,5.9-82.4-1.5-16.1,4.2-36.2-9-48.6-10.8,7-7.3,22.1-10,32.9M2375,1431.3c8.2-7.6,21.3-2.4,24.7,7.5,5.7,18.5,5.5,38.1,6.2,57.3.6,19.9,3.6,40.1-.9,59.8-3.8,10.9-14.7,22.1-27.1,18.9-10.9-5.8-12.9-19.1-12.4-30.2.3-26.6-2.6-53.1-2.7-79.7.6-11.9,1.4-26.3,12.2-33.6M2377.9,1448.9c-5,33.1-1.6,66.6.5,99.8,0,5.3,2.8,10,6.2,14,4.6-3.6,9.4-7.9,9.2-14.4,3.3-26.4.2-53-1.2-79.4-1.7-9.7-.6-21.2-7.7-29-4.3,1.7-6.6,4.7-7,9M2876.1,1707.8c9.9-4.1,23.3-3.1,29.8,6.4,14.4,22,13.3,49.4,15.8,74.5,3.7,42.1-2.1,84-3.5,126-1.3,14.6-3,29.3-5.7,43.8-1.5,10.2-11.5,18.9-22.1,16.8-12.2-.7-29.1-.3-35.1-13.3-4.7-15.4-7-31.5-8.6-47.4-3.5-52.4-5.7-105.2.3-157.4,1.5-19.7,9-41.9,29.1-49.5M2860.8,1748.8c-7.4,43.2-5.8,87.3-4.8,131,3.2,27,2.8,54.9,11.5,81,9.9,2.8,20.4,4.2,30.6,1.7,4.6-12.7,4.9-26.4,6.9-39.7,3.7-49.9,7-100.2,3.2-150.2-1.9-15.9-2.2-33-10.3-47.2-3.6-6.5-12.6-10-19.1-5.5-11.2,5-15.5,17.8-18,28.9M2739.7,1751.4c2.5-16.7,8.8-38.2,28-41.8,13.4-3.4,23.8,8.6,27.9,20,8.6,24,5.1,50,5.4,75,.6,22.3-1.7,44.8,1.3,67-5.1,34,0,70.6-14.7,102.5-14.4,2.9-35.8,10.7-45.3-5.3-7.1-20.9-6.1-43.5-9-65.2-2.2-50.8-.6-101.8,6.4-152.2M2765.2,1722.3c-12.6,11.8-12.4,30.5-15.5,46.3-6.2,65.4-8.8,132.3,4.1,197,7.7.9,15.4,1.5,23.1.2,4.1-3.8,5.3-9.7,6.3-15,1.9-14.6,4.6-29.1,4.8-43.8,3.8-53.7,6.5-108-.8-161.6-1.3-11.1-7.4-28.7-21.9-23.2M1913.1,2184.6c17.2-9.2,36.7.6,54.4,4.1,85.6,27.3,171.8,52.9,257.6,79.9,13.5,4.5,27.3,8.1,40.1,14.5,5.7,1.8,15.2,9.1,6.1,14.2-33.9,7.8-68.8,10-103.2,15-148.6,19-297.3,37.1-446.1,54.1-22,3.3-44.3,2.6-66.3,6.4l-4.6-1.5c-4.7-12.1,10.1-16.3,17.4-21.7,48.7-32.2,95.7-67.1,144.6-98.9,33.8-21.3,65-46.6,100-66.1M1890.5,2212.2c-45.3,31.4-90.8,62.4-136.4,93.3-26.4,17.2-50.8,37.3-77.7,53.8,23.1-4.3,46.7-5.3,70-8.1,164.7-18.9,329.5-38.2,493.7-60.5,5.2,3.6,10.7,2.2,11.3-3.8-6.7,2.6-12.9-.9-19.2-2.6-68.7-21-136.9-43.6-205.6-64.4-30.5-8.8-60.4-20.4-91.7-26.1-17.2-3.2-30.7,10.3-44.4,18.3M698.2,2732c-6.7-12.4,3.9-28.3,17.6-28.1,17.8-1.3,32,12.8,41.6,26.2,11.5,18.4,21.9,38.8,23.2,60.9,1.1,6.9-2.7,13.1-5.8,19,15.2,22.6,31.2,45.3,39.3,71.5,4.5,15.5,2.8,38.1-15.4,43.8-29,7-51.6-17.4-70.6-35.4-41.9,5.8-75.8-33.8-84.4-71.5-21.3-3.2-41.7-14-54.3-31.7-6.9-9.9-11.9-23.1-7.2-35,14.2-17.2,38.9-12.1,58.6-12.3,17.3,1.5,42.2,3.1,48,23.2,1.7,17.5-12,30.8-23.3,42.2,34.1,10.1,54,42.9,69,72.8,15,18.6,35.6,37.8,61.4,36.1,11.9-8.1,8.6-24.5,4-35.8-12-27.3-27.8-53.1-48.1-75-19.7-22-42.9-42.7-53.6-70.9M715.8,2739.7c13.8,21.5,30.5,42.4,51.7,56.9,3.3-18.1-6.4-35.5-14.6-51-8.1-13.6-20.3-28.7-37.3-29.5-12.3,3.3-3.6,16.7.2,23.6M594.2,2756.5c-4.4,14.6,7.3,27,17.4,35.8,9.2,8.8,22.4,10.5,34.6,10.6,13.2-8.4,28.7-19.1,31.4-35.6-2-12.7-18.2-13.3-28.1-15.1-18.3-.2-38.1-4-55.2,4.3M657.9,2815.3c-1.8,12.5,6,23.6,12.9,33.3,12.2,15.1,28.2,32.1,49.6,29.4-11.3-27.9-31.8-55.1-62.5-62.6M654.4,2929.8c38.4-27.4,101.6-19.1,126.1,23.2,13.1,22.5,12.9,49.8,10.9,75-1.5,17.3-17.4,35.4-36,31.2-22.7-6.7-37.6-31.8-35.4-54.9.7-12.2,7.6-22.7,15.2-31.8-27.5-1.7-56.7-2.3-81.3-16.3-11.1-5.4-9.2-20.7.5-26.4M667.5,2935.6c-4.9,2-12.1,7.5-4.7,11.9,21.4,10.8,46,10.7,69.3,13.1,18.1,3.7,34.1,14,48.1,25.6-3.7-16.8-10.8-33.9-25.1-44.4-24.7-19.4-60.2-20.3-87.6-6.3M745.9,2982.6c-26.3,15.5-12,63.8,17.6,64.8,16.9-6,17.6-28.5,14.8-43.5-7.8-9.8-18.7-23-32.4-21.3M2642.1,3016.1c14-6.8,28.1,4.9,33.9,17.1,10.1,24.5,10.3,51.5,10.6,77.6,0,33-2.1,66.6-11.7,98.4-3.9,12.5-11.2,27.4-25.6,29.5-11.4,1-18.7-9.1-22.8-18.2-12.7-29.6-14.2-62.3-14.5-94.1.4-28.8,1.9-58.2,11.5-85.7,3.9-9.5,9.2-19.5,18.6-24.6M2644,3030.1c-10.5,10.9-12.4,26.6-15.3,40.7-6.1,45.9-7.2,94.2,7.3,138.8,2.6,6.7,6.8,18.9,16.4,14.6,8.2-6.7,10.5-17.5,13.3-27.1,8.4-37.3,10.6-75.8,7.9-113.8-1.3-17.1-3-35.5-12.9-50.1-2.9-6.2-11.8-7.7-16.6-3.1M2750.3,3018.6c6.3-4.1,14.6-3.9,21.7-2,12.7,6.5,18,21.3,19.9,34.6,3.1,35.6.7,71.4-.8,107.1-3,25.7-2.5,53.9-17.6,76.2-7.9,11.8-25.8,15-36.6,5.3-10.3-9.3-14.2-23.5-17.4-36.5-9.4-46.9-9.4-96.2,3.7-142.5,4.8-16.1,12.5-33,27.1-42.3M2754.1,3030.3c-12.9,11.4-18.1,28.7-21.9,44.9-9.9,45.4-10.2,93.6,3.3,138.4,3.2,9.2,9.2,22.2,21.3,19.5,10.6-4.7,13.4-17.5,16-27.7,5.1-26,7-52.5,7.4-79,.9-28.9,3.8-58.6-3.7-86.9-1.9-9.8-14.2-16-22.3-9.2M2855.7,3017.1c13.5-6.4,28.6,2.8,34.4,15.4,13.3,28,13.1,59.7,13.9,90.1-.8,33-2.2,66.5-10.8,98.6-4.3,15.2-12.8,33.8-30.7,35.6-14.6.8-24.9-11.8-30.2-23.9-8.2-19.8-10.1-41.4-12.2-62.5-2.6-38.7-2.1-78.4,9.5-115.7,5.1-14.5,12.3-29.6,26.1-37.5M2856.4,3030.3c-7.5,7.4-10.9,17.7-14.5,27.3-11.8,36.2-11.7,74.9-9.7,112.5,2.9,22.1,3.3,46.1,15.8,65.5,4.8,8.2,17.3,11.9,23.4,3.1,14.3-19.7,14.5-45.3,18.1-68.4,2.1-42.7,6.6-87.5-8.8-128.3-2.7-10.2-14.6-20.3-24.3-11.7h0Z"/>
</svg>